<svg xmlns="http://www.w3.org/2000/svg" style="position:absolute;width:0;height:0;visibility:hidden" xmlns:xlink="http://www.w3.org/1999/xlink"><defs><symbol id="datagrip" viewBox="0 0 70 70"><path fill="#9775f8" d="M 65.5 10.9 L 70 39.5 l -17 9.9 l -3.2 -16.2" /><linearGradient id="datagrip_a" gradientUnits="userSpaceOnUse" gradientTransform="matrix(1 0 0 -1 0 72)" x1="41.069" y1="54.357" x2="46.521" y2="67.944"><stop stop-color="#9775f8" offset="0" /><stop stop-color="#22d88f" offset="0.952" /></linearGradient><path fill="url(#datagrip_a)" d="M 65.5 10.9 L 40.5 0 L 19.4 17.5 l 30.4 15.7" /><linearGradient id="datagrip_b" gradientUnits="userSpaceOnUse" gradientTransform="matrix(1 0 0 -1 0 72)" x1="17.067" y1="35.739" x2="24.146" y2="4.895"><stop stop-color="#9775f8" offset="0" /><stop stop-color="#689cce" offset="0.214" /><stop stop-color="#42bdac" offset="0.423" /><stop stop-color="#2bd197" offset="0.59" /><stop stop-color="#22d88f" offset="0.694" /></linearGradient><path fill="url(#datagrip_b)" d="M 47.3 70 L 18 30.6 l -8.7 5.8 L 0.6 62.5" /><linearGradient id="datagrip_c" gradientUnits="userSpaceOnUse" gradientTransform="matrix(1 0 0 -1 0 72)" x1="4.9" y1="37.969" x2="66.239" y2="4.102"><stop stop-color="#22d88f" offset="0.075" /><stop stop-color="#9775f8" offset="0.72" /></linearGradient><path fill="url(#datagrip_c)" d="M 52.8 50.1 L 32.3 36.6 L 0 32.3 L 47.3 70" /><linearGradient id="datagrip_d" gradientUnits="userSpaceOnUse" gradientTransform="matrix(1 0 0 -1 0 72)" x1="0" y1="45.15" x2="61.646" y2="45.15"><stop stop-color="#22d88f" offset="0.075" /><stop stop-color="#5ab0b4" offset="0.266" /><stop stop-color="#b86cf2" offset="0.565" /><stop stop-color="#ff59e6" offset="1" /></linearGradient><path fill="url(#datagrip_d)" d="M 0 0.5 v 31.8 l 60.8 20.9 l 4.7 -42.3" /><g><path d="M 13.4 13.4 h 43.2 v 43.2 H 13.4 Z" /><g fill="#fff"><path d="M 17.8 19 h 7 c 5.6 0 9.5 3.9 9.5 8.9 v 0.1 c 0 5 -3.9 8.9 -9.5 8.9 h -7 V 19 Z m 3.9 3.6 v 10.8 h 3 c 3.2 0 5.4 -2.2 5.4 -5.3 V 28 c 0 -3.2 -2.2 -5.4 -5.4 -5.4 h -3 Z M 35 28 c 0 -5.1 4 -9.3 9.4 -9.3 c 3.2 0 5.2 0.9 7 2.5 l -2.5 3 c -1.4 -1.2 -2.6 -1.8 -4.7 -1.8 c -2.9 0 -5.1 2.5 -5.1 5.6 c 0 3.3 2.2 5.7 5.4 5.7 c 1.4 0 2.7 -0.4 3.7 -1.1 V 30 h -4 v -3.4 H 52 v 7.8 c -1.8 1.6 -4.4 2.8 -7.6 2.8 c -5.6 0 -9.4 -3.9 -9.4 -9.2 Z" /></g><path fill="#fff" d="M 17.4 48.5 h 16.2 v 2.7 H 17.4 Z" /></g></symbol><symbol id="appcode" viewBox="0 0 70 70"><path fill="#247ce6" d="M 59.2 55 L 70 26.3 L 37.3 19 L 33 31.2" /><linearGradient id="appcode_a" gradientUnits="userSpaceOnUse" x1="20.617" y1="57.755" x2="70" y2="57.755"><stop stop-color="#00daf0" offset="0.194" /><stop stop-color="#247ce6" offset="0.903" /></linearGradient><path fill="url(#appcode_a)" d="M 70 56.1 L 53.5 70 l -32.9 -8.5 l 8.8 -16" /><linearGradient id="appcode_b" gradientUnits="userSpaceOnUse" x1="1.274" y1="17.415" x2="38.41" y2="17.415"><stop stop-color="#00daf0" offset="0.194" /><stop stop-color="#247ce6" offset="0.903" /></linearGradient><path fill="url(#appcode_b)" d="M 9.7 34.8 l -8.4 -24 L 38.4 0 l -3 31" /><linearGradient id="appcode_c" gradientUnits="userSpaceOnUse" x1="45.876" y1="72.222" x2="11.197" y2="23.824"><stop stop-color="#1ddf93" offset="0.091" /><stop stop-color="#00daf0" offset="0.484" /><stop stop-color="#247ce6" offset="0.903" /></linearGradient><path fill="url(#appcode_c)" d="M 61.1 40.5 L 50.7 22.7 l 0.2 -0.1 L 38.4 0 L 0 41.5 V 70 l 69.8 -13.9" /><g><path fill="#000" d="M 13.4 13.4 h 43.2 v 43.2 H 13.4 Z" /><path fill="#fff" d="M 17.4 48.5 h 16.2 v 2.7 H 17.4 Z M 24.5 19 h 3.6 l 7.6 17.9 h -4.1 l -1.6 -4 h -7.5 l -1.6 4 h -4 L 24.5 19 Z m 4.1 10.4 l -2.4 -5.8 l -2.4 5.8 h 4.8 Z M 34.7 28.1 c 0 -5.2 3.9 -9.4 9.4 -9.4 c 3.4 0 5.4 1.1 7.1 2.8 l -2.5 2.9 c -1.4 -1.3 -2.8 -2 -4.6 -2 c -3 0 -5.2 2.5 -5.2 5.6 c 0 3.1 2.1 5.7 5.2 5.7 c 2.1 0 3.3 -0.8 4.7 -2.1 l 2.5 2.5 c -1.9 2 -3.9 3.2 -7.4 3.2 c -5.3 0 -9.2 -4.1 -9.2 -9.2" /></g></symbol><symbol id="clion" viewBox="0 0 70 70"><linearGradient id="clion_a" gradientUnits="userSpaceOnUse" x1="22.254" y1="15.137" x2="45.654" y2="15.137"><stop stop-color="#ed358c" offset="0" /><stop stop-color="#e9388c" offset="0.155" /><stop stop-color="#de418c" offset="0.297" /><stop stop-color="#cc508c" offset="0.433" /><stop stop-color="#b2658d" offset="0.566" /><stop stop-color="#90808d" offset="0.697" /><stop stop-color="#67a18e" offset="0.826" /><stop stop-color="#37c78f" offset="0.951" /><stop stop-color="#22d88f" offset="1" /></linearGradient><path fill="url(#clion_a)" d="M 26.9 28.4 l -4.6 1.9 L 26.4 0 l 16.2 8.8" /><linearGradient id="clion_b" gradientUnits="userSpaceOnUse" x1="17.8" y1="8.982" x2="7.505" y2="78.065"><stop stop-color="#22d88f" offset="0.091" /><stop stop-color="#029de0" offset="0.903" /></linearGradient><path fill="url(#clion_b)" d="M 24.3 42 l 2.4 -42 L 6.5 12.7 L 0 51.5" /><linearGradient id="clion_c" gradientUnits="userSpaceOnUse" x1="63.836" y1="6.492" x2="-6.583" y2="80.865"><stop stop-color="#22d88f" offset="0.091" /><stop stop-color="#029de0" offset="0.903" /></linearGradient><path fill="url(#clion_c)" d="M 68.6 21 l -9 -18.3 l -17 6.1 l -12.5 13.9 L 0 51.5 L 22.7 68 l 28.5 -25.7" /><linearGradient id="clion_d" gradientUnits="userSpaceOnUse" x1="40.114" y1="49.366" x2="66.875" y2="53.171"><stop stop-color="#22d88f" offset="0.091" /><stop stop-color="#029de0" offset="0.903" /></linearGradient><path fill="url(#clion_d)" d="M 29.4 29.9 l -3.9 24 l 16 12.3 L 59 70 l 11 -25" /><g><path fill="#000" d="M 13.4 13.4 h 43.2 v 43.2 H 13.4 Z" /><path fill="#fff" d="M 17.5 48.5 h 16.2 v 2.7 H 17.5 Z M 17.2 28.1 c 0 -5.1 3.8 -9.3 9.3 -9.3 c 3.4 0 5.4 1.1 7.1 2.8 l -2.5 2.9 c -1.4 -1.3 -2.8 -2 -4.6 -2 c -3 0 -5.2 2.5 -5.2 5.6 V 28 c 0 3.1 2.1 5.6 5.2 5.6 c 2 0 3.3 -0.8 4.7 -2.1 l 2.5 2.5 c -1.8 2 -3.9 3.2 -7.3 3.2 c -5.3 0.1 -9.2 -4 -9.2 -9.1 M 36.4 19.1 h 3.9 v 14.6 h 7.8 V 37 H 36.4 V 19.1 Z" /></g></symbol><symbol id="dotcover" viewBox="0 0 70 70"><linearGradient id="dotcover_a" gradientUnits="userSpaceOnUse" x1="37.049" y1="55.637" x2="23.558" y2="5.422"><stop stop-color="#7866ff" offset="0.048" /><stop stop-color="#8265fa" offset="0.135" /><stop stop-color="#9c64ee" offset="0.281" /><stop stop-color="#c661d9" offset="0.467" /><stop stop-color="#eb5fc7" offset="0.608" /><stop stop-color="#fa6398" offset="0.729" /><stop stop-color="#ff6488" offset="0.769" /><stop stop-color="#ff7500" offset="0.995" /></linearGradient><path fill="url(#dotcover_a)" d="M 42.8 0 L 0 4.8 v 22 l 10.7 35.8 l 53.9 -13.7" /><linearGradient id="dotcover_b" gradientUnits="userSpaceOnUse" x1="69.11" y1="50.451" x2="57.169" y2="46.132"><stop stop-color="#7866ff" offset="0.247" /><stop stop-color="#8f5ffa" offset="0.346" /><stop stop-color="#b353f1" offset="0.531" /><stop stop-color="#cd4aeb" offset="0.705" /><stop stop-color="#dd45e7" offset="0.859" /><stop stop-color="#e343e6" offset="0.979" /></linearGradient><path fill="url(#dotcover_b)" d="M 70 41.3 l -4.1 -19.1 l -9.2 12.7 l -6.4 19.3 L 48.2 70 L 64 60" /><linearGradient id="dotcover_c" gradientUnits="userSpaceOnUse" x1="57.012" y1="46.84" x2="23.73" y2="32.867"><stop stop-color="#e343e6" offset="0.006" /><stop stop-color="#e649ca" offset="0.064" /><stop stop-color="#ef5982" offset="0.19" /><stop stop-color="#fd7110" offset="0.372" /><stop stop-color="#ff7500" offset="0.398" /></linearGradient><path fill="url(#dotcover_c)" d="M 65.9 22.2 l -13.4 -6.4 l -15.7 1.4 l -15.4 10.7 l -3.1 19.2 l 13.5 18.4 L 48.2 70" /><g><path fill="#000" d="M 13.4 13.4 h 43.2 v 43.2 H 13.4 Z" /><g fill="#fff"><path d="M 17.5 19.1 h 7 c 5.6 0 9.5 3.9 9.5 8.9 v 0.1 c 0 5 -3.9 8.9 -9.5 8.9 h -7 V 19.1 Z m 3.9 3.6 v 10.8 h 3 c 3.2 0 5.4 -2.2 5.4 -5.3 v -0.1 c 0 -3.2 -2.2 -5.4 -5.4 -5.4 h -3 Z M 17.5 48.5 h 16.2 v 2.7 H 17.5 Z M 35.4 28.1 c 0 -5.1 3.8 -9.3 9.3 -9.3 c 3.4 0 5.4 1.1 7.1 2.8 l -2.5 2.9 c -1.4 -1.3 -2.8 -2 -4.6 -2 c -3 0 -5.2 2.5 -5.2 5.6 v 0.1 c 0 3.1 2.1 5.6 5.2 5.6 c 2 0 3.3 -0.8 4.7 -2.1 l 2.5 2.5 c -1.8 2 -3.9 3.2 -7.3 3.2 c -5.2 -0.1 -9.2 -4.1 -9.2 -9.3" /></g></g></symbol><symbol id="dotmemory" viewBox="0 0 70 70"><linearGradient id="dotmemory_a" gradientUnits="userSpaceOnUse" x1="20.477" y1="18.782" x2="32.464" y2="68.958"><stop stop-color="#7866ff" offset="0" /><stop stop-color="#7e64fe" offset="0.023" /><stop stop-color="#aa56f3" offset="0.195" /><stop stop-color="#c94cec" offset="0.349" /><stop stop-color="#dc45e8" offset="0.48" /><stop stop-color="#e343e6" offset="0.57" /><stop stop-color="#e859bc" offset="0.641" /><stop stop-color="#f48f58" offset="0.819" /><stop stop-color="#fcb019" offset="0.942" /><stop stop-color="#ffbd00" offset="1" /></linearGradient><path fill="url(#dotmemory_a)" d="M 8 65.1 L 0.1 37.6 l 51.6 7.6 L 44.3 70" /><linearGradient id="dotmemory_b" gradientUnits="userSpaceOnUse" x1="49.418" y1="41.451" x2="32.72" y2="7.516"><stop stop-color="#7866ff" offset="0" /><stop stop-color="#965cf8" offset="0.202" /><stop stop-color="#e343e6" offset="0.64" /><stop stop-color="#ffbd00" offset="0.968" /></linearGradient><path fill="url(#dotmemory_b)" d="M 23.5 0.1 l 18.6 5.3 L 63.2 0 L 70 46.3 l -56.6 -8.7" /><linearGradient id="dotmemory_c" gradientUnits="userSpaceOnUse" x1="26.353" y1="53.604" x2="36.21" y2="30.222"><stop stop-color="#e343e6" offset="0.118" /><stop stop-color="#c84cec" offset="0.211" /><stop stop-color="#ab55f3" offset="0.338" /><stop stop-color="#955df8" offset="0.472" /><stop stop-color="#8562fc" offset="0.618" /><stop stop-color="#7b65fe" offset="0.781" /><stop stop-color="#7866ff" offset="1" /></linearGradient><path fill="url(#dotmemory_c)" d="M 70 46.1 l -2.7 -17.2 l -41.7 -14.5 L 0.1 19.9 L 0 37.7 l 49.6 13.6" /><g><path fill="#000" d="M 13.4 13.4 h 43.2 v 43.2 H 13.4 Z" /><path fill="#fff" d="M 17.4 48.5 h 16.2 v 2.7 H 17.4 Z M 17.4 19 h 6.9 c 5.6 0 9.5 3.9 9.5 8.9 v 0.1 c 0 5 -3.9 9 -9.5 9 h -6.9 V 19 Z m 3.9 3.6 v 10.8 h 2.9 c 3.2 0 5.4 -2.2 5.4 -5.4 s -2.2 -5.4 -5.4 -5.4 h -2.9 Z M 34.8 19.1 h 4.3 l 4.6 7.5 l 4.7 -7.5 h 4.2 v 17.8 h -3.9 V 25.2 l -5 7.6 h -0.1 l -4.9 -7.5 v 11.6 h -3.9" /></g></symbol><symbol id="dotpeek" viewBox="0 0 70 70"><linearGradient id="dotpeek_a" gradientUnits="userSpaceOnUse" x1="10.879" y1="26.793" x2="47.049" y2="63.717"><stop stop-color="#e343e6" offset="0.097" /><stop stop-color="#d948e8" offset="0.108" /><stop stop-color="#ac5def" offset="0.165" /><stop stop-color="#876ff5" offset="0.222" /><stop stop-color="#6b7df9" offset="0.279" /><stop stop-color="#5687fc" offset="0.336" /><stop stop-color="#4a8dfe" offset="0.392" /><stop stop-color="#468fff" offset="0.446" /><stop stop-color="#00caff" offset="0.935" /></linearGradient><path fill="url(#dotpeek_a)" d="M 44.3 20.9 L 5.2 30.3 L 0 40.8 L 14.1 70 l 35.2 -6.1" /><linearGradient id="dotpeek_b" gradientUnits="userSpaceOnUse" x1="9.66" y1="55.746" x2="32.843" y2="36.427"><stop stop-color="#e343e6" offset="0.097" /><stop stop-color="#de45e7" offset="0.118" /><stop stop-color="#b951f0" offset="0.289" /><stop stop-color="#9d5af6" offset="0.462" /><stop stop-color="#8861fb" offset="0.632" /><stop stop-color="#7c65fe" offset="0.802" /><stop stop-color="#7866ff" offset="0.968" /></linearGradient><path fill="url(#dotpeek_b)" d="M 65.8 31.5 L 38.2 14 L 0 22.1 v 18.7 l 62.6 12.5" /><linearGradient id="dotpeek_c" gradientUnits="userSpaceOnUse" x1="39.855" y1="16.927" x2="56.356" y2="50.653"><stop stop-color="#e343e6" offset="0.199" /><stop stop-color="#da46e8" offset="0.31" /><stop stop-color="#c24eee" offset="0.491" /><stop stop-color="#9a5bf7" offset="0.718" /><stop stop-color="#7866ff" offset="0.887" /></linearGradient><path fill="url(#dotpeek_c)" d="M 70 31.3 L 39.6 0 L 15.8 7.2 l 7.8 23.7 l 39 22.4" /><linearGradient id="dotpeek_d" gradientUnits="userSpaceOnUse" x1="19.875" y1="18.305" x2="61.328" y2="8.256"><stop stop-color="#e343e6" offset="0.097" /><stop stop-color="#da48e7" offset="0.175" /><stop stop-color="#c157ea" offset="0.302" /><stop stop-color="#996fee" offset="0.464" /><stop stop-color="#6290f4" offset="0.653" /><stop stop-color="#1cb9fc" offset="0.863" /><stop stop-color="#00caff" offset="0.941" /></linearGradient><path fill="url(#dotpeek_d)" d="M 64.5 19.6 L 61.8 0 H 39.6 L 15.8 7.2 l 7.8 23.7" /><g><path fill="#000" d="M 13.4 13.4 h 43.2 v 43.2 H 13.4 Z" /><path fill="#fff" d="M 17.4 48.5 h 16.2 v 2.7 H 17.4 Z" /><g fill="#fff"><path d="M 17.5 19.1 h 7 c 5.6 0 9.5 3.9 9.5 8.9 v 0.1 c 0 5 -3.9 8.9 -9.5 8.9 h -7 V 19.1 Z m 3.9 3.6 v 10.8 h 3 c 3.2 0 5.4 -2.2 5.4 -5.3 v -0.1 c 0 -3.2 -2.2 -5.4 -5.4 -5.4 h -3 Z M 35.6 19.1 h 7.3 c 4.3 0 6.9 2.5 6.9 6.2 v 0.1 c 0 4.1 -3.2 6.3 -7.2 6.3 h -3 V 37 h -3.9 V 19.1 Z m 7 9 c 2 0 3.1 -1.2 3.1 -2.7 v -0.1 c 0 -1.8 -1.2 -2.7 -3.2 -2.7 h -3 v 5.5 h 3.1 Z" /></g></g></symbol><symbol id="dottrace" viewBox="0 0 70 70"><linearGradient id="dottrace_a" gradientUnits="userSpaceOnUse" x1="-1.332" y1="43.737" x2="67.042" y2="26.097"><stop stop-color="#7866ff" offset="0.124" /><stop stop-color="#fe2eb6" offset="0.538" /><stop stop-color="#fd0486" offset="0.855" /></linearGradient><path fill="url(#dottrace_a)" d="M 67.3 16 L 43.7 0 L 0 31.1 L 11.1 70 l 47.8 -9.7" /><linearGradient id="dottrace_b" gradientUnits="userSpaceOnUse" x1="45.915" y1="38.91" x2="67.658" y2="9.099"><stop stop-color="#ff0080" offset="0.124" /><stop stop-color="#fe0385" offset="0.259" /><stop stop-color="#fa0c92" offset="0.411" /><stop stop-color="#f41ba9" offset="0.571" /><stop stop-color="#eb2fc8" offset="0.736" /><stop stop-color="#e343e6" offset="0.866" /></linearGradient><path fill="url(#dottrace_b)" d="M 67.3 16 L 43.7 0 L 38 15.7 v 32.1 h 32" /><g><path fill="#000" d="M 13.4 13.4 h 43.2 v 43.2 H 13.4 Z" /><path fill="#fff" d="M 17.4 48.5 h 16.2 v 2.7 H 17.4 Z" /><g fill="#fff"><path d="M 17.4 19.1 h 6.9 c 5.6 0 9.5 3.8 9.5 8.9 c 0 5 -3.9 8.9 -9.5 8.9 h -6.9 V 19.1 Z m 4 3.6 v 10.7 h 3 c 3.2 0 5.4 -2.2 5.4 -5.3 V 28 c 0 -3.2 -2.2 -5.4 -5.4 -5.4 h -3 Z M 40.3 22.7 h -5.4 v -3.6 h 14.7 v 3.6 h -5.4 V 37 h -3.9" /></g></g></symbol><symbol id="hub" viewBox="0 0 70 70"><linearGradient id="hub_a" gradientUnits="userSpaceOnUse" gradientTransform="matrix(1 0 0 -1 0 69.89)" x1="40.415" y1="69.001" x2="39.585" y2="30.566"><stop stop-color="#00b8f1" offset="0.328" /><stop stop-color="#9758fb" offset="0.973" /></linearGradient><path fill="url(#hub_a)" d="M 61.3 0.9 c -1.7 -0.8 -3.6 -1 -5.5 -0.8 c -0.3 0 -45.3 3.8 -45.3 3.8 l 31.8 37.5 l 5.8 0.3 L 66.3 22 c 6.1 -6.1 4.8 -17 -5 -21.1 Z" /><linearGradient id="hub_b" gradientUnits="userSpaceOnUse" x1="58.345" y1="64.017" x2="11.932" y2="13.636"><stop stop-color="#ffee45" offset="0" /><stop stop-color="#9758fb" offset="1" /></linearGradient><path fill="url(#hub_b)" d="M 53.6 47.2 l -1.3 2 l -16 -19.5 l -15.5 10.4 L 46.5 68 c 0.5 0.5 1.2 0.9 1.9 1.3 c 1.4 0.7 3 0.9 4.6 0.4 c 1.5 -0.4 2.6 -1.2 3.5 -2.1 l 10.8 -10.7 l -13.7 -9.7 Z" /><linearGradient id="hub_c" gradientUnits="userSpaceOnUse" gradientTransform="matrix(1 0 0 -1 0 69.89)" x1="31.025" y1="60.401" x2="21.392" y2="39.808"><stop stop-color="#00b8f1" offset="0.328" /><stop stop-color="#9758fb" offset="0.79" /></linearGradient><path fill="url(#hub_c)" d="M 45.7 41.6 L 19.6 8.4 c -1.1 -1.6 -2.8 -2.9 -5 -3.8 c -1.7 -0.7 -3.7 -0.9 -5.5 -0.5 C -0.5 6.2 -2.7 16.7 3.5 22.3 l 18.1 18.6 l 24.1 0.7 Z" /><linearGradient id="hub_d" gradientUnits="userSpaceOnUse" gradientTransform="matrix(1 0 0 -1 0 69.89)" x1="-3.259" y1="17.766" x2="68.816" y2="17.766"><stop stop-color="#00b8f1" offset="0" /><stop stop-color="#9758fb" offset="0.306" /><stop stop-color="#ffee45" offset="0.989" /></linearGradient><path fill="url(#hub_d)" d="M 63.2 40.5 c -3.4 -1 -5.3 -0.7 -9.8 -0.8 l -38 -5.4 L 4.5 44.7 c -6.9 6.8 -5.8 18.7 4.4 23.8 c 2.6 1.3 5.5 1.7 8.2 1.3 c 19.3 -3.6 43.5 -9.4 43.7 -9.4 c 0.4 -0.1 0.9 -0.2 1.3 -0.3 c 6.3 -1.9 8.9 -7.8 7.4 -12.8 c -0.8 -2.8 -3 -5.8 -6.3 -6.8 Z" /><path d="M 13.4 13.4 h 43.2 v 43.2 H 13.4 Z" /><g fill="#fff"><path d="M 17.4 19.1 h 4 v 7.2 h 7.4 v -7.2 h 4 v 18.1 h -4 v -7.3 h -7.4 v 7.3 h -4 V 19.1 Z M 35.7 19.1 h 8.4 c 2.1 0 3.7 0.6 4.7 1.6 c 0.8 0.8 1.2 1.8 1.2 3.1 v 0.1 c 0 2 -1.1 3.2 -2.4 3.9 c 2.1 0.8 3.4 2 3.4 4.5 v 0.1 c 0 3.3 -2.7 5 -6.8 5 h -8.6 V 19.1 h 0.1 Z m 10.5 5.3 c 0 -1.2 -0.9 -1.9 -2.6 -1.9 h -3.9 v 3.8 h 3.7 c 1.7 0.1 2.8 -0.5 2.8 -1.9 Z m -2 5.3 h -4.6 v 4 h 4.7 c 1.8 0 2.8 -0.6 2.8 -2 v -0.1 c 0.1 -1.1 -0.8 -1.9 -2.9 -1.9 Z" /></g><path fill="#fff" d="M 17.5 48.5 h 16.2 v 2.7 H 17.5 Z" /></symbol><symbol id="intellij-idea" viewBox="0 0 70 70"><linearGradient id="intellij-idea_a" gradientUnits="userSpaceOnUse" x1="0.79" y1="40.089" x2="33.317" y2="40.089"><stop stop-color="#f97a12" offset="0.258" /><stop stop-color="#b07b58" offset="0.459" /><stop stop-color="#577bae" offset="0.724" /><stop stop-color="#1e7ce5" offset="0.91" /><stop stop-color="#087cfa" offset="1" /></linearGradient><path fill="url(#intellij-idea_a)" d="M 17.7 54.6 L 0.8 41.2 l 8.4 -15.6 L 33.3 35" /><linearGradient id="intellij-idea_b" gradientUnits="userSpaceOnUse" x1="25.767" y1="24.88" x2="79.424" y2="54.57"><stop stop-color="#f97a12" offset="0" /><stop stop-color="#cb7a3e" offset="0.072" /><stop stop-color="#9e7b6a" offset="0.154" /><stop stop-color="#757b91" offset="0.242" /><stop stop-color="#537bb1" offset="0.334" /><stop stop-color="#387ccc" offset="0.432" /><stop stop-color="#237ce0" offset="0.538" /><stop stop-color="#147cef" offset="0.655" /><stop stop-color="#0b7cf7" offset="0.792" /><stop stop-color="#087cfa" offset="1" /></linearGradient><path fill="url(#intellij-idea_b)" d="M 70 18.7 l -1.3 40.5 L 41.8 70 L 25.6 59.6 L 49.3 35 L 38.9 12.3 l 9.3 -11.2" /><linearGradient id="intellij-idea_c" gradientUnits="userSpaceOnUse" x1="63.228" y1="42.915" x2="48.29" y2="-1.719"><stop stop-color="#fe315d" offset="0" /><stop stop-color="#cb417e" offset="0.078" /><stop stop-color="#9e4e9b" offset="0.16" /><stop stop-color="#755bb4" offset="0.247" /><stop stop-color="#5365ca" offset="0.339" /><stop stop-color="#386ddb" offset="0.436" /><stop stop-color="#2374e9" offset="0.541" /><stop stop-color="#1478f3" offset="0.658" /><stop stop-color="#0b7bf8" offset="0.794" /><stop stop-color="#087cfa" offset="1" /></linearGradient><path fill="url(#intellij-idea_c)" d="M 70 18.7 L 48.7 43.9 l -9.8 -31.6 l 9.3 -11.2" /><linearGradient id="intellij-idea_d" gradientUnits="userSpaceOnUse" x1="10.72" y1="16.473" x2="55.524" y2="90.58"><stop stop-color="#fe315d" offset="0" /><stop stop-color="#f63462" offset="0.04" /><stop stop-color="#df3a71" offset="0.104" /><stop stop-color="#c24383" offset="0.167" /><stop stop-color="#ad4a91" offset="0.291" /><stop stop-color="#755bb4" offset="0.55" /><stop stop-color="#1d76ed" offset="0.917" /><stop stop-color="#087cfa" offset="1" /></linearGradient><path fill="url(#intellij-idea_d)" d="M 33.7 58.1 L 5.6 68.3 l 4.5 -15.8 L 16 33.1 L 0 27.7 L 10.1 0 l 22 2.7 l 21.6 24.7" /><g><path fill="#000" d="M 13.7 13.5 h 43.2 v 43.2 H 13.7 Z" /><path fill="#fff" d="M 17.7 48.6 h 16.2 v 2.7 H 17.7 Z M 29.4 22.4 v -3.3 h -9 v 3.3 H 23 v 11.3 h -2.6 V 37 h 9 v -3.3 h -2.5 V 22.4 M 38 37.3 c -1.4 0 -2.6 -0.3 -3.5 -0.8 c -0.9 -0.5 -1.7 -1.2 -2.3 -1.9 l 2.5 -2.8 c 0.5 0.6 1 1 1.5 1.3 c 0.5 0.3 1.1 0.5 1.7 0.5 c 0.7 0 1.3 -0.2 1.8 -0.7 c 0.4 -0.5 0.6 -1.2 0.6 -2.3 V 19.1 h 4 v 11.7 c 0 1.1 -0.1 2 -0.4 2.8 c -0.3 0.8 -0.7 1.4 -1.3 2 c -0.5 0.5 -1.2 1 -2 1.2 c -0.8 0.3 -1.6 0.5 -2.6 0.5" /></g></symbol><symbol id="mps" viewBox="0 0 70 70"><path fill="#21d789" d="M 11.4 32.2 l 45.3 8.6 L 42.4 70 L 0 60.9" /><linearGradient id="mps_a" gradientUnits="userSpaceOnUse" x1="0" y1="22.22" x2="70" y2="22.22"><stop stop-color="#2b86d0" offset="0.059" /><stop stop-color="#21d789" offset="0.887" /></linearGradient><path fill="url(#mps_a)" d="M 48.8 0.1 L 0 12.1 l 2.1 25.6 l 32.4 -3.3 l 20 9.9 l 2.7 -4.9 L 70 15.7" /><linearGradient id="mps_b" gradientUnits="userSpaceOnUse" x1="19.931" y1="5.834" x2="44.575" y2="59.186"><stop stop-color="#f1eb5e" offset="0.167" /><stop stop-color="#26adae" offset="0.581" /><stop stop-color="#28a1b9" offset="0.632" /><stop stop-color="#2992c6" offset="0.718" /><stop stop-color="#2a8dca" offset="0.79" /><stop stop-color="#2b86d0" offset="1" /></linearGradient><path fill="url(#mps_b)" d="M 31.5 0 L 2.1 37.7 l 60.5 15.8 L 69.7 43" /><g><path fill="#000" d="M 13.4 13.4 h 43.2 v 43.2 H 13.4 Z" /><g fill="#fff"><path d="M 17.4 48.5 h 16.2 v 2.7 H 17.4 Z M 17.4 18.9 h 3 l 3.5 5.5 l 3.4 -5.5 h 3 v 12.9 h -2.8 v -8.4 l -3.6 5.5 h -0.1 l -3.6 -5.5 v 8.4 h -2.8 M 31.8 18.9 h 5.3 c 3.1 0 5 1.8 5 4.5 c 0 3 -2.3 4.5 -5.2 4.5 h -2.2 v 3.9 h -2.8 l -0.1 -12.9 Z m 5.1 6.5 c 1.4 0 2.3 -0.9 2.3 -2 c 0 -1.3 -0.9 -2 -2.3 -2 h -2.2 v 4 h 2.2 Z M 42.7 30 l 1.7 -2 c 1.2 1 2.4 1.6 3.9 1.6 c 1.2 0 1.9 -0.5 1.9 -1.2 s -0.4 -1.1 -2.6 -1.6 c -2.6 -0.7 -4.3 -1.4 -4.3 -4 c 0 -2.3 1.9 -3.9 4.5 -3.9 c 1.9 0 3.5 0.6 4.8 1.6 l -1.5 2.1 c -1.1 -0.8 -2.3 -1.3 -3.4 -1.3 s -1.7 0.5 -1.7 1.1 c 0 0.9 0.6 1.1 2.8 1.7 c 2.6 0.7 4.1 1.6 4.1 3.9 c 0 2.6 -2 4 -4.8 4 c -1.8 0 -3.8 -0.7 -5.4 -2" /></g></g></symbol><symbol id="phpstorm" viewBox="0 0 70 70"><linearGradient id="phpstorm_a" gradientUnits="userSpaceOnUse" x1="0.558" y1="46.846" x2="29.947" y2="8.026"><stop stop-color="#765af8" offset="0.016" /><stop stop-color="#b345f1" offset="0.382" /><stop stop-color="#fa3293" offset="0.758" /><stop stop-color="#ff318c" offset="0.941" /></linearGradient><path fill="url(#phpstorm_a)" d="M 39.6 15.2 l -3.3 -10 L 11.9 0 L 0 13.5 l 37.2 19" /><linearGradient id="phpstorm_b" gradientUnits="userSpaceOnUse" x1="2.73" y1="48.379" x2="32.072" y2="9.621"><stop stop-color="#765af8" offset="0.016" /><stop stop-color="#b345f1" offset="0.382" /><stop stop-color="#fa3293" offset="0.758" /><stop stop-color="#ff318c" offset="0.941" /></linearGradient><path fill="url(#phpstorm_b)" d="M 28 41.4 l -0.7 -20.8 L 0 13.5 l 6.7 40.1 l 21.3 -0.2" /><linearGradient id="phpstorm_c" gradientUnits="userSpaceOnUse" x1="50.857" y1="46.405" x2="34.274" y2="7.048"><stop stop-color="#765af8" offset="0.183" /><stop stop-color="#8655f6" offset="0.238" /><stop stop-color="#9f4cf3" offset="0.345" /><stop stop-color="#ae47f2" offset="0.443" /><stop stop-color="#b345f1" offset="0.522" /></linearGradient><path fill="url(#phpstorm_c)" d="M 22.1 41 l 1.3 -16.5 L 43.2 4.2 l 17.7 3.2 L 70 30.1 l -9.5 9.4 L 45 37 l -9.6 10.1" /><linearGradient id="phpstorm_d" gradientUnits="userSpaceOnUse" x1="63.266" y1="57.339" x2="24.698" y2="27.516"><stop stop-color="#765af8" offset="0.016" /><stop stop-color="#b345f1" offset="0.382" /></linearGradient><path fill="url(#phpstorm_d)" d="M 43.2 4.2 L 14.8 29.4 l 5.5 32.4 L 43.9 70 L 70 54.4" /><g><path fill="#000" d="M 13.4 13.4 h 43.2 v 43.2 H 13.4 Z" /><path fill="#fff" d="M 17.5 48.5 h 16.2 v 2.7 H 17.5 Z M 17.3 19 h 7.3 c 4.3 0 6.9 2.5 6.9 6.2 v 0.1 c 0 4.2 -3.2 6.3 -7.3 6.3 h -3 V 37 h -3.9 V 19 Z m 7.1 9 c 2 0 3.1 -1.2 3.1 -2.7 v -0.1 c 0 -1.8 -1.2 -2.7 -3.2 -2.7 h -3 V 28 h 3.1 Z M 32.5 34.4 l 2.3 -2.8 c 1.6 1.3 3.3 2.2 5.4 2.2 c 1.6 0 2.6 -0.6 2.6 -1.7 V 32 c 0 -1 -0.6 -1.5 -3.6 -2.3 c -3.6 -0.9 -6 -1.9 -6 -5.5 v -0.1 c 0 -3.3 2.6 -5.4 6.3 -5.4 c 2.6 0 4.9 0.8 6.7 2.3 l -2.1 3 c -1.6 -1.1 -3.2 -1.8 -4.7 -1.8 s -2.3 0.7 -2.3 1.6 v 0.1 c 0 1.2 0.8 1.6 3.9 2.4 c 3.6 1 5.7 2.3 5.7 5.4 v 0.1 c 0 3.6 -2.7 5.6 -6.6 5.6 c -2.7 -0.1 -5.4 -1.1 -7.6 -3" /></g></symbol><symbol id="pycharm" viewBox="0 0 70 70"><linearGradient id="pycharm_a" gradientUnits="userSpaceOnUse" x1="24.998" y1="27.046" x2="66.656" y2="27.046"><stop stop-color="#21d789" offset="0" /><stop stop-color="#07c3f2" offset="1" /></linearGradient><path fill="url(#pycharm_a)" d="M 49.1 11 l 20.4 17.1 L 62.2 43 l -12.4 -3.4 H 39.2" /><linearGradient id="pycharm_b" gradientUnits="userSpaceOnUse" x1="-24.559" y1="59.081" x2="61.22" y2="-4.241"><stop stop-color="#fcf84a" offset="0.011" /><stop stop-color="#a7eb62" offset="0.112" /><stop stop-color="#5fe077" offset="0.206" /><stop stop-color="#32da84" offset="0.273" /><stop stop-color="#21d789" offset="0.306" /><stop stop-color="#21d789" offset="0.577" /><stop stop-color="#21d789" offset="0.597" /><stop stop-color="#20d68c" offset="0.686" /><stop stop-color="#1ed497" offset="0.763" /><stop stop-color="#19d1a9" offset="0.835" /><stop stop-color="#13ccc2" offset="0.904" /><stop stop-color="#0bc6e1" offset="0.971" /><stop stop-color="#07c3f2" offset="1" /></linearGradient><path fill="url(#pycharm_b)" d="M 28.5 22.1 l -4 20.9 l -0.4 7.2 l -9.9 4.3 L 0 56 l 4.3 -45.3 L 29.9 0 l 15.8 10.4" /><linearGradient id="pycharm_c" gradientUnits="userSpaceOnUse" x1="9.33" y1="77.654" x2="23.637" y2="32.76"><stop stop-color="#21d789" offset="0" /><stop stop-color="#24d788" offset="0.164" /><stop stop-color="#2fd886" offset="0.305" /><stop stop-color="#41da82" offset="0.437" /><stop stop-color="#5adc7d" offset="0.564" /><stop stop-color="#7ae077" offset="0.688" /><stop stop-color="#a1e36e" offset="0.809" /><stop stop-color="#cfe865" offset="0.925" /><stop stop-color="#f1eb5e" offset="1" /></linearGradient><path fill="url(#pycharm_c)" d="M 28.5 22.1 l 1.9 40.4 L 24 70 L 0 56 l 19.7 -29.4" /><linearGradient id="pycharm_d" gradientUnits="userSpaceOnUse" x1="28.275" y1="38.623" x2="59.409" y2="-3.236"><stop stop-color="#21d789" offset="0" /><stop stop-color="#24d788" offset="0.061" /><stop stop-color="#2fd886" offset="0.113" /><stop stop-color="#41da82" offset="0.162" /><stop stop-color="#5add7d" offset="0.209" /><stop stop-color="#79e077" offset="0.255" /><stop stop-color="#7ce076" offset="0.258" /><stop stop-color="#8ce173" offset="0.499" /><stop stop-color="#b2e56b" offset="0.925" /></linearGradient><path fill="url(#pycharm_d)" d="M 54.9 19.1 H 30.6 L 52.1 0" /><linearGradient id="pycharm_e" gradientUnits="userSpaceOnUse" x1="75.889" y1="43.95" x2="13.158" y2="43.369"><stop stop-color="#fcf84a" offset="0.387" /><stop stop-color="#ecf451" offset="0.536" /><stop stop-color="#c2e964" offset="0.826" /><stop stop-color="#b2e56b" offset="0.925" /></linearGradient><path fill="url(#pycharm_e)" d="M 70 62.6 l -21.4 7.3 l -28.4 -8 l 8.3 -39.8 l 3.3 -3 l 17.3 -1.6 l -1.6 17.4 l 13.8 -5.3" /><g><path fill="#000" d="M 13.4 13.4 h 43.2 v 43.2 H 13.4 Z" /><path fill="#fff" d="M 17.5 48.5 h 16.2 v 2.7 H 17.5 Z M 17.3 19.1 h 7.3 c 4.3 0 6.9 2.5 6.9 6.2 v 0.1 c 0 4.1 -3.2 6.3 -7.2 6.3 h -3 V 37 h -3.9 V 19.1 Z m 7.1 9 c 2 0 3.1 -1.2 3.1 -2.7 v -0.1 c 0 -1.8 -1.2 -2.7 -3.2 -2.7 h -3 v 5.5 h 3.1 Z M 33.1 28.1 c 0 -5.1 3.8 -9.3 9.3 -9.3 c 3.4 0 5.4 1.1 7.1 2.8 L 47 24.5 c -1.4 -1.3 -2.8 -2 -4.6 -2 c -3 0 -5.2 2.5 -5.2 5.6 V 28 c 0 3.1 2.1 5.6 5.2 5.6 c 2 0 3.3 -0.8 4.7 -2.1 l 2.5 2.5 c -1.8 2 -3.9 3.2 -7.3 3.2 c -5.3 0.1 -9.2 -4 -9.2 -9.1" /></g></symbol><symbol id="pycharm-edu" viewBox="0 0 70 70"><linearGradient id="pycharm-edu_a" gradientUnits="userSpaceOnUse" x1="24.998" y1="27.046" x2="66.656" y2="27.046"><stop stop-color="#21d789" offset="0" /><stop stop-color="#07c3f2" offset="1" /></linearGradient><path fill="url(#pycharm-edu_a)" d="M 49.1 11 l 20.4 17.1 L 62.2 43 l -12.4 -3.4 H 39.2" /><linearGradient id="pycharm-edu_b" gradientUnits="userSpaceOnUse" x1="-24.559" y1="59.081" x2="61.22" y2="-4.241"><stop stop-color="#fcf84a" offset="0.011" /><stop stop-color="#a7eb62" offset="0.112" /><stop stop-color="#5fe077" offset="0.206" /><stop stop-color="#32da84" offset="0.273" /><stop stop-color="#21d789" offset="0.306" /><stop stop-color="#21d789" offset="0.577" /><stop stop-color="#21d789" offset="0.597" /><stop stop-color="#20d68c" offset="0.686" /><stop stop-color="#1ed497" offset="0.763" /><stop stop-color="#19d1a9" offset="0.835" /><stop stop-color="#13ccc2" offset="0.904" /><stop stop-color="#0bc6e1" offset="0.971" /><stop stop-color="#07c3f2" offset="1" /></linearGradient><path fill="url(#pycharm-edu_b)" d="M 28.5 22.1 l -4 20.9 l -0.4 7.2 l -9.9 4.3 L 0 56 l 4.3 -45.3 L 29.9 0 l 15.8 10.4" /><linearGradient id="pycharm-edu_c" gradientUnits="userSpaceOnUse" x1="9.33" y1="77.654" x2="23.637" y2="32.76"><stop stop-color="#21d789" offset="0" /><stop stop-color="#24d788" offset="0.164" /><stop stop-color="#2fd886" offset="0.305" /><stop stop-color="#41da82" offset="0.437" /><stop stop-color="#5adc7d" offset="0.564" /><stop stop-color="#7ae077" offset="0.688" /><stop stop-color="#a1e36e" offset="0.809" /><stop stop-color="#cfe865" offset="0.925" /><stop stop-color="#f1eb5e" offset="1" /></linearGradient><path fill="url(#pycharm-edu_c)" d="M 28.5 22.1 l 1.9 40.4 L 24 70 L 0 56 l 19.7 -29.4" /><linearGradient id="pycharm-edu_d" gradientUnits="userSpaceOnUse" x1="28.275" y1="38.623" x2="59.409" y2="-3.236"><stop stop-color="#21d789" offset="0" /><stop stop-color="#24d788" offset="0.061" /><stop stop-color="#2fd886" offset="0.113" /><stop stop-color="#41da82" offset="0.162" /><stop stop-color="#5add7d" offset="0.209" /><stop stop-color="#79e077" offset="0.255" /><stop stop-color="#7ce076" offset="0.258" /><stop stop-color="#8ce173" offset="0.499" /><stop stop-color="#b2e56b" offset="0.925" /></linearGradient><path fill="url(#pycharm-edu_d)" d="M 54.9 19.1 H 30.6 L 52.1 0" /><linearGradient id="pycharm-edu_e" gradientUnits="userSpaceOnUse" x1="75.889" y1="43.95" x2="13.158" y2="43.369"><stop stop-color="#fcf84a" offset="0.387" /><stop stop-color="#ecf451" offset="0.536" /><stop stop-color="#c2e964" offset="0.826" /><stop stop-color="#b2e56b" offset="0.925" /></linearGradient><path fill="url(#pycharm-edu_e)" d="M 70 62.6 l -21.4 7.3 l -28.4 -8 l 8.3 -39.8 l 3.3 -3 l 17.3 -1.6 l -1.6 17.4 l 13.8 -5.3" /><g><path d="M 13.4 13.4 h 43.2 v 43.2 H 13.4 Z" /><path fill="#fff" d="M 17.5 48.5 h 16.2 v 2.7 H 17.5 Z M 17.3 19.1 h 7.3 c 4.3 0 6.9 2.5 6.9 6.2 v 0.1 c 0 4.1 -3.2 6.3 -7.2 6.3 h -3 V 37 h -3.9 V 19.1 Z m 7.1 9 c 2 0 3.1 -1.2 3.1 -2.7 v -0.1 c 0 -1.8 -1.2 -2.7 -3.2 -2.7 h -3 v 5.5 h 3.1 Z M 33.6 19.1 h 13.5 v 3.5 h -9.6 v 3.6 H 46 v 3.5 h -8.4 v 3.8 h 9.7 V 37 H 33.6 V 19.1 Z" /></g></symbol><symbol id="resharper" viewBox="0 0 70 70"><linearGradient id="resharper_a" gradientUnits="userSpaceOnUse" x1="22.945" y1="75.787" x2="74.787" y2="20.642"><stop stop-color="#b35ba3" offset="0.016" /><stop stop-color="#c41e57" offset="0.404" /><stop stop-color="#c41e57" offset="0.468" /><stop stop-color="#eb8523" offset="0.65" /><stop stop-color="#febd11" offset="0.952" /></linearGradient><path fill="url(#resharper_a)" d="M 49.8 15.2 L 36 36.7 L 58.4 70 L 70 23.1" /><linearGradient id="resharper_b" gradientUnits="userSpaceOnUse" x1="17.719" y1="73.292" x2="69.556" y2="18.152"><stop stop-color="#b35ba3" offset="0.016" /><stop stop-color="#c41e57" offset="0.404" /><stop stop-color="#c41e57" offset="0.468" /><stop stop-color="#eb8523" offset="0.704" /></linearGradient><path fill="url(#resharper_b)" d="M 51.1 15.7 L 49 0 L 18.8 33.6 l 8.8 8.7 L 20.8 70 h 37.6" /><linearGradient id="resharper_c" gradientUnits="userSpaceOnUse" x1="1.828" y1="53.428" x2="48.825" y2="9.226"><stop stop-color="#b35ba3" offset="0.016" /><stop stop-color="#c41e57" offset="0.661" /></linearGradient><path fill="url(#resharper_c)" d="M 49 0 H 11.6 L 0 47.1 h 55.6" /><linearGradient id="resharper_d" gradientUnits="userSpaceOnUse" x1="49.894" y1="-11.557" x2="48.859" y2="24.035"><stop stop-color="#c41e57" offset="0.5" /><stop stop-color="#d13f48" offset="0.667" /><stop stop-color="#d94f39" offset="0.795" /><stop stop-color="#dd5433" offset="0.866" /></linearGradient><path fill="url(#resharper_d)" d="M 55.3 47.1 l -4.2 -31.4 L 49 0 l -7.3 23" /><g><path fill="#000" d="M 56.594 56.616 l -43.2 0.11 l -0.11 -43.2 l 43.2 -0.11 Z" /><path fill="#fff" d="M 17.597 48.62 l 16.2 -0.04 l 0.007 2.7 l -16.2 0.04 Z M 17.4 19.1 h 8.2 c 2.3 0 4 0.6 5.2 1.8 c 1 1 1.5 2.4 1.5 4.1 v 0.1 c 0 1.5 -0.3 2.6 -1.1 3.5 c -0.7 0.9 -1.6 1.6 -2.8 2 l 4.4 6.4 h -4.6 l -3.7 -5.5 h -3.3 V 37 h -3.9 l 0.1 -17.9 Z m 7.9 8.7 c 1 0 1.7 -0.2 2.2 -0.7 c 0.5 -0.5 0.8 -1.1 0.8 -1.8 v -0.1 c 0 -0.9 -0.3 -1.5 -0.8 -1.9 c -0.5 -0.4 -1.3 -0.6 -2.3 -0.6 h -3.9 v 5.1 h 4 Z M 36 33.2 h -1.9 v -3.3 h 2.5 l 0.6 -3.8 h -2.3 v -3.3 h 2.8 l 0.6 -3.7 h 3.4 l -0.6 3.7 h 3.7 l 0.6 -3.7 h 3.4 l -0.6 3.7 h 1.9 v 3.3 h -2.5 l -0.6 3.8 h 2.3 v 3.3 h -2.8 l -0.7 3.8 h -3.4 l 0.7 -3.8 h -3.7 l -0.7 3.8 h -3.4 l 0.7 -3.8 Z m 7.7 -3.3 l 0.6 -3.8 h -3.7 l -0.6 3.8 h 3.7 Z" /></g></symbol><symbol id="resharper-cpp" viewBox="0 0 70 70"><linearGradient id="resharper-cpp_a" gradientUnits="userSpaceOnUse" x1="8.063" y1="16.141" x2="29.26" y2="69.757"><stop stop-color="#c40b55" offset="0.22" /><stop stop-color="#e343e6" offset="0.683" /><stop stop-color="#f59252" offset="0.925" /></linearGradient><path fill="url(#resharper-cpp_a)" d="M 20.2 15.2 L 34 36.7 L 11.6 70 L 0 23.1" /><linearGradient id="resharper-cpp_b" gradientUnits="userSpaceOnUse" gradientTransform="matrix(-1 0 0 1 928 0)" x1="875.719" y1="73.292" x2="927.556" y2="18.152"><stop stop-color="#ffbd00" offset="0.113" /><stop stop-color="#e343e6" offset="0.586" /><stop stop-color="#ec841b" offset="0.817" /><stop stop-color="#ffbd00" offset="0.935" /></linearGradient><path fill="url(#resharper-cpp_b)" d="M 18.9 15.7 L 21 0 l 30.2 33.6 l -8.8 8.7 L 49.2 70 H 11.6" /><linearGradient id="resharper-cpp_c" gradientUnits="userSpaceOnUse" x1="25.5" y1="-1.93" x2="69.96" y2="51.168"><stop stop-color="#ffbd00" offset="0.129" /><stop stop-color="#e343e6" offset="0.64" /><stop stop-color="#c40b55" offset="0.909" /></linearGradient><path fill="url(#resharper-cpp_c)" d="M 35.3 47.1 H 70 L 58.4 0 H 21" /><g><path fill="#000" d="M 13.4 13.4 h 43.2 v 43.2 H 13.4 Z" /><path fill="#fff" d="M 17.4 19 h 8.2 c 2.3 0 4 0.6 5.2 1.8 c 1 1 1.5 2.4 1.5 4.1 v 0.1 c 0 1.5 -0.4 2.6 -1.1 3.5 c -0.7 0.9 -1.6 1.6 -2.8 2 l 4.4 6.4 h -4.6 l -3.7 -5.5 h -3.3 v 5.5 h -3.9 V 19 Z m 8 8.7 c 1 0 1.7 -0.2 2.2 -0.7 c 0.5 -0.5 0.8 -1.1 0.8 -1.8 v -0.1 c 0 -0.9 -0.3 -1.5 -0.8 -1.9 c -0.5 -0.4 -1.3 -0.6 -2.3 -0.6 h -3.9 v 5.1 h 4 Z M 17.4 48.5 h 16.2 v 2.7 H 17.4 Z" /><g><path fill="#fff" d="M 43.7 24.4 h -4 v -3.6 h 4 v -4 h 3.7 v 4 h 4 v 3.6 h -4 v 4 h -3.7 v -4 Z" /></g><g><path fill="#fff" d="M 37.1 34.6 h -4 V 31 h 4 v -4 h 3.7 v 4 h 4 v 3.6 h -4 v 4 h -3.7 v -4 Z" /></g></g></symbol><symbol id="rubymine" viewBox="0 0 70 70"><linearGradient id="rubymine_a" gradientUnits="userSpaceOnUse" x1="49.609" y1="52.554" x2="30.346" y2="7.163"><stop stop-color="#ff1f51" offset="0.172" /><stop stop-color="#ff3648" offset="0.28" /><stop stop-color="#ff593b" offset="0.468" /><stop stop-color="#ff7231" offset="0.646" /><stop stop-color="#ff812b" offset="0.809" /><stop stop-color="#ff8629" offset="0.941" /></linearGradient><path fill="url(#rubymine_a)" d="M 58.2 0 l -20 7.2 L 22.4 0 L 6.9 38.9 l 17.8 -7.1 l -0.3 19.7 l 38.1 0.7 L 70 13.7" /><linearGradient id="rubymine_b" gradientUnits="userSpaceOnUse" x1="33.259" y1="12.887" x2="25.105" y2="33.436"><stop stop-color="#9039d0" offset="0.022" /><stop stop-color="#ff1f51" offset="0.629" /></linearGradient><path fill="url(#rubymine_b)" d="M 50.8 22.7 L 25.6 6.2 L 5.3 18.7 l 44.5 17.2" /><linearGradient id="rubymine_c" gradientUnits="userSpaceOnUse" x1="0.29" y1="11.224" x2="45.284" y2="68.42"><stop stop-color="#9039d0" offset="0.107" /><stop stop-color="#ff1f51" offset="0.387" /><stop stop-color="#ff1f51" offset="0.629" /><stop stop-color="#ff3648" offset="0.66" /><stop stop-color="#ff593b" offset="0.714" /><stop stop-color="#ff7231" offset="0.765" /><stop stop-color="#ff812b" offset="0.812" /><stop stop-color="#ff8629" offset="0.85" /></linearGradient><path fill="url(#rubymine_c)" d="M 29.1 68.2 l 26.2 -3.5 l -8.3 -16 l 5.5 -6.7 l 0.6 -4.1 L 25.6 6.1 L 0 12.4 v 36.7 L 14.8 70 l 14.3 -1.8" /><g><path fill="#000" d="M 13.4 13.4 h 43.2 v 43.2 H 13.4 Z" /><path fill="#fff" d="M 17.5 48.5 h 16.2 v 2.7 H 17.5 Z M 34.6 19 h 4.3 l 4.7 7.6 l 4.7 -7.6 h 4.3 v 17.9 h -4 V 25.2 l -5 7.7 h -0.1 l -5 -7.6 v 11.6 h -3.9 M 17.4 19 h 8.2 c 2.3 0 4 0.6 5.2 1.8 c 1 1 1.5 2.4 1.5 4.1 v 0.1 c 0 1.5 -0.4 2.6 -1.1 3.5 c -0.7 0.9 -1.6 1.6 -2.8 2 l 4.4 6.4 h -4.6 l -3.7 -5.5 h -3.3 v 5.5 h -3.9 V 19 Z m 8 8.7 c 1 0 1.7 -0.2 2.2 -0.7 c 0.5 -0.5 0.8 -1.1 0.8 -1.8 v -0.1 c 0 -0.9 -0.3 -1.5 -0.8 -1.9 c -0.5 -0.4 -1.3 -0.6 -2.3 -0.6 h -3.9 v 5.1 h 4 Z" /></g></symbol><symbol id="teamcity" viewBox="0 0 70 70"><linearGradient id="teamcity_a" gradientUnits="userSpaceOnUse" x1="1.774" y1="31.273" x2="40.166" y2="31.273"><stop stop-color="#905cfb" offset="0" /><stop stop-color="#776cf9" offset="0.068" /><stop stop-color="#5681f7" offset="0.173" /><stop stop-color="#3b92f5" offset="0.286" /><stop stop-color="#269ff4" offset="0.41" /><stop stop-color="#17a9f3" offset="0.547" /><stop stop-color="#0faef2" offset="0.711" /><stop stop-color="#0cb0f2" offset="0.968" /></linearGradient><path fill="url(#teamcity_a)" d="M 39.7 47.9 l -6.1 -34 c -0.4 -2.4 -1.2 -4.8 -2.7 -7.1 c -2 -3.2 -5.2 -5.4 -8.8 -6.3 C 7.9 -2.9 -2.6 11.3 3.6 23.9 l 14.8 31.7 c 0.4 1 1 2 1.7 2.9 c 1.2 1.6 2.8 2.8 4.7 3.4 c 9.6 3 17.3 -5.5 14.9 -14 Z" /><linearGradient id="teamcity_b" gradientUnits="userSpaceOnUse" x1="5.311" y1="9.669" x2="69.228" y2="43.866"><stop stop-color="#905cfb" offset="0" /><stop stop-color="#776cf9" offset="0.068" /><stop stop-color="#5681f7" offset="0.173" /><stop stop-color="#3b92f5" offset="0.286" /><stop stop-color="#269ff4" offset="0.41" /><stop stop-color="#17a9f3" offset="0.547" /><stop stop-color="#0faef2" offset="0.711" /><stop stop-color="#0cb0f2" offset="0.968" /></linearGradient><path fill="url(#teamcity_b)" d="M 67.4 26.5 c -1.4 -2.2 -3.4 -3.9 -5.7 -4.9 L 25.5 1.7 c -1 -0.5 -2.1 -1 -3.3 -1.3 C 6.7 -3.2 -4.4 13.8 5.5 27 c 1.5 2 3.6 3.6 6 4.5 L 48 47.9 c 0.8 0.5 1.6 0.8 2.5 1.1 c 14 4.4 24.6 -10.4 16.9 -22.5 Z" /><linearGradient id="teamcity_c" gradientUnits="userSpaceOnUse" x1="-19.284" y1="70.82" x2="55.983" y2="33.186"><stop stop-color="#3bea62" offset="0" /><stop stop-color="#31de80" offset="0.117" /><stop stop-color="#24cea8" offset="0.302" /><stop stop-color="#1ac1c9" offset="0.484" /><stop stop-color="#12b7df" offset="0.659" /><stop stop-color="#0eb2ed" offset="0.824" /><stop stop-color="#0cb0f2" offset="0.968" /></linearGradient><path fill="url(#teamcity_c)" d="M 67.4 26.5 c -1.8 -2.8 -4.6 -4.8 -7.9 -5.6 c -3.5 -0.8 -6.8 -0.5 -9.6 0.7 L 11.4 36.1 s -0.2 0.1 -0.6 0.4 C 0.9 40.4 -4 53.3 4 64 c 1.8 2.4 4.3 4.2 7.1 5 c 5.3 1.6 10.1 1 14 -1.1 h 0.1 l 37.6 -20.1 l 0.1 -0.1 c 6.6 -3.8 9.7 -13.1 4.5 -21.2 Z" /><linearGradient id="teamcity_d" gradientUnits="userSpaceOnUse" x1="38.944" y1="5.85" x2="5.423" y2="77.509"><stop stop-color="#3bea62" offset="0" /><stop stop-color="#2fdb87" offset="0.094" /><stop stop-color="#24cea8" offset="0.196" /><stop stop-color="#1bc3c3" offset="0.306" /><stop stop-color="#14bad8" offset="0.426" /><stop stop-color="#10b5e7" offset="0.56" /><stop stop-color="#0db1ef" offset="0.719" /><stop stop-color="#0cb0f2" offset="0.968" /></linearGradient><path fill="url(#teamcity_d)" d="M 50.3 12.8 c 1.2 -2.7 1.1 -6 -0.9 -9 C 48.3 2 46.5 0.8 44.5 0.3 c -4.5 -1.1 -8.3 1 -10.1 4.2 L 3.5 42 v 0.1 C -0.9 47.9 -1.6 56.5 4 64 c 1.8 2.4 4.3 4.2 7.1 5 c 10.5 3.3 19.3 -2.5 22.1 -10.8 l 17.1 -45.4 Z" /><g><path fill="#000" d="M 13.4 13.4 h 43.2 v 43.2 H 13.4 Z" /><path fill="#fff" d="M 17.5 48.5 h 16.2 v 2.7 H 17.5 Z M 22.9 22.7 h -5.4 v -3.6 h 14.8 v 3.6 h -5.5 V 37 h -3.9 M 32.5 28.1 c 0 -5.1 3.8 -9.3 9.3 -9.3 c 3.4 0 5.4 1.1 7.1 2.8 l -2.5 2.9 c -1.4 -1.3 -2.8 -2 -4.6 -2 c -3 0 -5.2 2.5 -5.2 5.6 V 28 c 0 3.1 2.1 5.6 5.2 5.6 c 2 0 3.3 -0.8 4.7 -2.1 L 49 34 c -1.8 2 -3.9 3.2 -7.3 3.2 c -5.3 0.1 -9.2 -4 -9.2 -9.1" /></g></symbol><symbol id="upsource" viewBox="0 0 70 70"><linearGradient id="upsource_a" gradientUnits="userSpaceOnUse" gradientTransform="matrix(1 0 0 -1 0 65.395)" x1="64.913" y1="54.385" x2="17.513" y2="47.275"><stop stop-color="#ff8200" offset="0" /><stop stop-color="#905cfb" offset="0.973" /></linearGradient><path fill="url(#upsource_a)" d="M 60.5 24 L 9.6 26.9 L 9.3 7.4 L 55.2 0.2" /><linearGradient id="upsource_b" gradientUnits="userSpaceOnUse" gradientTransform="matrix(1 0 0 -1 0 65.395)" x1="15.675" y1="30.593" x2="20.093" y2="55.275"><stop stop-color="#0cb0f2" offset="0" /><stop stop-color="#905cfb" offset="0.973" /></linearGradient><path fill="url(#upsource_b)" d="M 20.3 43.2 l 16.4 -20.8 l -17.8 -12.2 c -3.1 -2.8 -7.8 -4 -12.6 -2 c -2.4 1 -4.3 2.9 -5.3 5.3 c -2.1 5 -0.8 9.9 2.4 12.9 l 16.9 16.8 Z" /><linearGradient id="upsource_c" gradientUnits="userSpaceOnUse" gradientTransform="matrix(1 0 0 -1 0 65.395)" x1="58.335" y1="11.729" x2="26.978" y2="27.043"><stop stop-color="#0cb0f2" offset="0" /><stop stop-color="#905cfb" offset="0.973" /></linearGradient><path fill="url(#upsource_c)" d="M 20.3 43.2 l 25.2 24.9 l 15.7 -29.3 l -24.5 -16.4" /><linearGradient id="upsource_d" gradientUnits="userSpaceOnUse" gradientTransform="matrix(1 0 0 -1 0 65.395)" x1="60.678" y1="9.337" x2="7.352" y2="28.508"><stop stop-color="#0cb0f2" offset="0" /><stop stop-color="#905cfb" offset="0.973" /></linearGradient><path fill="url(#upsource_d)" d="M 53.9 36.6 l -41.9 -2 c -1.6 -0.3 -3.4 -0.2 -5.3 0.6 c -1.8 0.8 -3.2 2.1 -3.9 3.9 c -2.1 4.9 0.4 9.6 4.5 11.2 L 44.8 68 c 0.5 0.3 3 1 3 1 c 2 0.6 4.2 0.9 6.2 0.9 c 2.5 0 5.3 -0.7 8.1 -2.1 c 2.6 -1.3 4.2 -3.4 5.6 -6 c 1.7 -3 2.2 -5.8 2.2 -8.6 c -0.1 -8.7 -7.3 -16 -16 -16.6 Z" /><linearGradient id="upsource_e" gradientUnits="userSpaceOnUse" gradientTransform="matrix(1 0 0 -1 0 65.395)" x1="64.194" y1="59.46" x2="18.524" y2="22.651"><stop stop-color="#ff8200" offset="0" /><stop stop-color="#905cfb" offset="0.973" /></linearGradient><path fill="url(#upsource_e)" d="M 52.1 1.1 c -0.7 0.3 -1.4 0.7 -2 1.1 L 26.9 19.7 l 11.5 16.8 l 25.2 -14.1 c 1.9 -0.9 3.4 -2.5 4.3 -4.3 c 5.6 -10.8 -4.8 -21.6 -15.8 -17 Z" /><path fill="#905cfb" d="M 14.5 49.8 l 23.9 -13.3 l -11.5 -16.8 l -22 16.5" /><linearGradient id="upsource_f" gradientUnits="userSpaceOnUse" gradientTransform="matrix(1 0 0 -1 0 65.395)" x1="30.448" y1="16.152" x2="2.265" y2="26.168"><stop stop-color="#0cb0f2" offset="0" /><stop stop-color="#905cfb" offset="0.973" /></linearGradient><path fill="url(#upsource_f)" d="M 20.4 56.4 V 35 l -8.4 -0.4 c -1.6 -0.3 -3.4 -0.2 -5.3 0.6 c -1.8 0.8 -3.2 2.1 -3.9 3.9 c -2.1 4.9 0.4 9.6 4.5 11.2 h 0.1 l 13 6.1 Z" /><g><path fill="#000" d="M 13.4 13.4 h 43.2 v 43.2 H 13.4 Z" /><g fill="#fff"><path d="M 17.5 29.4 V 19 h 4 v 10.3 c 0 3 1.5 4.5 3.9 4.5 s 3.9 -1.5 3.9 -4.4 V 19 h 4 v 10.2 c 0 5.5 -3.1 8.2 -8 8.2 c -4.8 0.1 -7.8 -2.7 -7.8 -8 Z M 35.4 19 h 7.4 c 4.3 0 6.9 2.6 6.9 6.3 v 0.1 c 0 4.2 -3.3 6.4 -7.3 6.4 h -3 v 5.4 h -4 V 19 Z m 7.2 9.2 c 2 0 3.2 -1.2 3.2 -2.7 v -0.1 c 0 -1.8 -1.2 -2.7 -3.2 -2.7 h -3.1 v 5.5 h 3.1 Z" /></g><path fill="#fff" d="M 17.5 48.5 h 16.2 v 2.7 H 17.5 Z" /></g></symbol><symbol id="webstorm" viewBox="0 0 70 70"><linearGradient id="webstorm_a" gradientUnits="userSpaceOnUse" x1="25.068" y1="1.46" x2="43.183" y2="66.675"><stop stop-color="#00cdd7" offset="0.285" /><stop stop-color="#2086d7" offset="0.941" /></linearGradient><path fill="url(#webstorm_a)" d="M 9.4 63.3 L 0 7.3 L 17.5 0.1 l 11.1 6.6 l 10.2 -5.5 l 21.3 8.2 l -12 60.6" /><linearGradient id="webstorm_b" gradientUnits="userSpaceOnUse" x1="30.72" y1="9.734" x2="61.365" y2="54.671"><stop stop-color="#fff045" offset="0.14" /><stop stop-color="#00cdd7" offset="0.366" /></linearGradient><path fill="url(#webstorm_b)" d="M 70 23.7 L 61 1.4 L 44.6 0 L 19.3 24.3 l 6.8 31.3 l 12.7 9 L 70 46 l -7.7 -14.3" /><linearGradient id="webstorm_c" gradientUnits="userSpaceOnUse" x1="61.082" y1="15.29" x2="65.106" y2="29.544"><stop stop-color="#00cdd7" offset="0.285" /><stop stop-color="#2086d7" offset="0.941" /></linearGradient><path fill="url(#webstorm_c)" d="M 56 20.4 l 6.3 11.3 l 7.7 -8 l -5.6 -13.9" /><g><path fill="#000" d="M 13.4 13.4 h 43.2 v 43.2 H 13.4 Z" /><path fill="#fff" d="M 17.5 48.5 h 16.2 v 2.7 H 17.5 Z M 38.7 34.3 l 2.3 -2.8 c 1.6 1.3 3.3 2.2 5.3 2.2 c 1.6 0 2.5 -0.6 2.5 -1.7 v -0.1 c 0 -1 -0.6 -1.5 -3.6 -2.3 c -3.6 -0.9 -5.8 -1.9 -5.8 -5.5 V 24 c 0 -3.3 2.6 -5.4 6.2 -5.4 c 2.6 0 4.8 0.8 6.6 2.3 l -2 3 c -1.6 -1.1 -3.1 -1.8 -4.6 -1.8 c -1.5 0 -2.3 0.7 -2.3 1.6 v 0.1 c 0 1.2 0.8 1.6 3.8 2.4 c 3.6 1 5.6 2.3 5.6 5.4 v 0.1 c 0 3.6 -2.7 5.6 -6.5 5.6 c -2.7 -0.1 -5.4 -1.1 -7.5 -3 M 35.2 19 l -2.7 10.4 l -3 -10.4 h -3 l -3.1 10.4 L 20.7 19 h -4.1 l 5.1 17.9 H 25 l 3 -10.4 l 2.9 10.4 h 3.4 L 39.4 19" /></g></symbol><symbol id="youtrack" viewBox="0 0 70 70"><linearGradient id="youtrack_a" gradientUnits="userSpaceOnUse" gradientTransform="matrix(1 0 0 -1 0 71.047)" x1="7.083" y1="16.294" x2="64.106" y2="42.288"><stop stop-color="#905cfb" offset="0" /><stop stop-color="#6677f8" offset="0.165" /><stop stop-color="#3596f5" offset="0.378" /><stop stop-color="#17a9f3" offset="0.54" /><stop stop-color="#0cb0f2" offset="0.632" /></linearGradient><path fill="url(#youtrack_a)" d="M 66.9 47.5 c -0.2 -0.2 -13.1 -12.6 -13.1 -12.6 s 9.8 -10.4 12.4 -13 c 0.8 -0.8 1.5 -1.6 2 -2.6 c 3.6 -6.1 1.5 -13.9 -4.6 -17.5 c -4.5 -2.6 -10.1 -2.2 -14.1 0.8 c -0.7 0.5 -1.3 1 -1.9 1.6 c -0.3 0.4 -13.9 12.8 -25.7 23.6 l 22.1 14 l -23.2 26.1 c -1.4 1 -2.8 1.6 -4.3 1.9 c 0.3 0 0.5 0 0.8 -0.1 c 4.6 -0.7 43.9 -7.3 45.8 -7.7 c 2.3 -0.4 4.4 -1.8 5.7 -3.9 C 71 54.5 70 50 66.9 47.5 Z" /><linearGradient id="youtrack_b" gradientUnits="userSpaceOnUse" gradientTransform="matrix(1 0 0 -1 0 71.047)" x1="30.31" y1="42.916" x2="1.068" y2="68.744"><stop stop-color="#905cfb" offset="0" /><stop stop-color="#a554e6" offset="0.072" /><stop stop-color="#d641b5" offset="0.252" /><stop stop-color="#f43597" offset="0.39" /><stop stop-color="#ff318c" offset="0.468" /></linearGradient><path fill="url(#youtrack_b)" d="M 45.9 30.5 c -0.4 -2.7 -1.8 -4.9 -3.8 -6.5 C 40 22.4 23.8 5.6 22 3.7 C 19.2 1 15.2 -0.5 11.1 0.2 C 4.1 1.2 -0.8 7.8 0.3 14.8 c 0.5 3.5 2.5 6.5 5.1 8.4 c 2.6 2 23 16 24.3 17 c 2.1 1.6 4.9 2.5 7.7 2 c 5.5 -1 9.4 -6.2 8.5 -11.7 Z" /><linearGradient id="youtrack_c" gradientUnits="userSpaceOnUse" gradientTransform="matrix(1 0 0 -1 0 71.047)" x1="4.983" y1="12.362" x2="74.023" y2="55.864"><stop stop-color="#905cfb" offset="0" /><stop stop-color="#6677f8" offset="0.165" /><stop stop-color="#3596f5" offset="0.378" /><stop stop-color="#17a9f3" offset="0.54" /><stop stop-color="#0cb0f2" offset="0.632" /></linearGradient><path fill="url(#youtrack_c)" d="M 23 67.8 c 0.1 0 23.3 -26.1 23.3 -26.1 L 22.9 26.9 c -8.3 7.6 -16 14.5 -17.8 16.2 c -1.1 1 -2.2 2.3 -3 3.7 c -4.3 7.4 -1.8 16.8 5.6 21.1 c 3 1.7 9.8 3.8 15.3 -0.1 Z" /><g><path fill="#000" d="M 13.4 13.4 h 43.2 v 43.2 H 13.4 Z" /><path fill="#fff" d="M 17.4 48.5 h 16.2 v 2.7 H 17.4 Z M 23.8 29.9 L 17 19.1 h 4.6 l 4.2 7.1 l 4.4 -7.1 h 4.5 l -6.9 10.7 V 37 h -4 M 41.6 22.7 h -5.5 v -3.6 H 51 v 3.6 h -5.5 V 37 h -3.9" /></g></symbol><symbol id="jetbrains" viewBox="0 0 120.1 130.2"><linearGradient id="jetbrains_a" gradientUnits="userSpaceOnUse" x1="31.841" y1="120.558" x2="110.24" y2="73.24"><stop stop-color="#fcee39" offset="0" /><stop stop-color="#f37b3d" offset="1" /></linearGradient><path fill="url(#jetbrains_a)" d="M 118.6 71.8 c 0.9 -0.8 1.4 -1.9 1.5 -3.2 c 0.1 -2.6 -1.8 -4.7 -4.4 -4.9 c -1.2 -0.1 -2.4 0.4 -3.3 1.1 l -83.8 45.9 c -1.9 0.8 -3.6 2.2 -4.7 4.1 c -2.9 4.8 -1.3 11 3.6 13.9 c 3.4 2 7.5 1.8 10.7 -0.2 c 0.2 -0.2 0.5 -0.3 0.7 -0.5 l 78 -54.8 c 0.4 -0.3 1.5 -1.1 1.7 -1.4 Z" /><linearGradient id="jetbrains_b" gradientUnits="userSpaceOnUse" x1="48.361" y1="6.908" x2="119.918" y2="69.555"><stop stop-color="#ef5a6b" offset="0" /><stop stop-color="#f26f4e" offset="0.57" /><stop stop-color="#f37b3d" offset="1" /></linearGradient><path fill="url(#jetbrains_b)" d="M 118.8 65.1 L 55 2.5 C 53.6 1 51.6 0 49.3 0 c -4.3 0 -7.7 3.5 -7.7 7.7 c 0 2.1 0.8 3.9 2.1 5.3 c 0.4 0.4 0.8 0.7 1.2 1 l 67.4 57.7 c 0.8 0.7 1.8 1.2 3 1.3 c 2.6 0.1 4.7 -1.8 4.9 -4.4 c 0 -1.3 -0.5 -2.6 -1.4 -3.5 Z" /><linearGradient id="jetbrains_c" gradientUnits="userSpaceOnUse" x1="52.947" y1="63.641" x2="10.538" y2="37.156"><stop stop-color="#7c59a4" offset="0" /><stop stop-color="#af4c92" offset="0.385" /><stop stop-color="#dc4183" offset="0.765" /><stop stop-color="#ed3d7d" offset="0.957" /></linearGradient><path fill="url(#jetbrains_c)" d="M 57.1 59.5 c -0.1 0 -39.4 -31 -40.2 -31.5 l -1.8 -0.9 c -5.8 -2.2 -12.2 0.8 -14.4 6.6 c -1.9 5.1 0.2 10.7 4.6 13.4 c 0.7 0.4 1.3 0.7 2 0.9 c 0.4 0.2 45.4 18.8 45.4 18.8 c 1.8 0.8 3.9 0.3 5.1 -1.2 c 1.5 -1.9 1.2 -4.6 -0.7 -6.1 Z" /><linearGradient id="jetbrains_d" gradientUnits="userSpaceOnUse" x1="52.174" y1="3.702" x2="10.771" y2="37.897"><stop stop-color="#ef5a6b" offset="0" /><stop stop-color="#ee4e72" offset="0.364" /><stop stop-color="#ed3d7d" offset="1" /></linearGradient><path fill="url(#jetbrains_d)" d="M 49.3 0 c -1.7 0 -3.3 0.6 -4.6 1.5 L 4.9 28.3 c -0.1 0.1 -0.2 0.1 -0.2 0.2 h -0.1 c -1.7 1.2 -3.1 3 -3.9 5.1 c -2.2 5.8 0.8 12.3 6.6 14.4 c 3.6 1.4 7.5 0.7 10.4 -1.4 c 0.7 -0.5 1.3 -1 1.8 -1.6 l 34.6 -31.2 c 1.8 -1.4 3 -3.6 3 -6.1 c 0 -4.2 -3.5 -7.7 -7.8 -7.7 Z" /><path fill="#000" d="M 34.6 37.4 h 51 v 51 h -51 Z" /><path fill="#fff" d="M 39 78.8 h 19.1 V 82 H 39 Z" /><g fill="#fff"><path d="M 38.8 50.8 l 1.5 -1.4 c 0.4 0.5 0.8 0.8 1.3 0.8 c 0.6 0 0.9 -0.4 0.9 -1.2 v -5.3 h 2.3 V 49 c 0 1 -0.3 1.8 -0.8 2.3 c -0.5 0.5 -1.3 0.8 -2.3 0.8 c -1.5 0.1 -2.3 -0.5 -2.9 -1.3 Z M 45.3 43.8 H 52 v 1.9 h -4.4 V 47 h 4 v 1.8 h -4 v 1.3 h 4.5 v 2 h -6.7 l -0.1 -8.3 Z M 55 45.8 h -2.5 v -2 h 7.3 v 2 h -2.5 v 6.3 H 55 v -6.3 Z M 39 54 h 4.3 c 1 0 1.8 0.3 2.3 0.7 c 0.3 0.3 0.5 0.8 0.5 1.4 c 0 1 -0.5 1.5 -1.3 1.9 c 1 0.3 1.6 0.9 1.6 2 c 0 1.4 -1.2 2.3 -3.1 2.3 H 39 V 54 Z m 4.8 2.6 c 0 -0.5 -0.4 -0.7 -1 -0.7 h -1.5 v 1.5 h 1.4 c 0.7 -0.1 1.1 -0.3 1.1 -0.8 Z M 43 59 h -1.8 v 1.5 H 43 c 0.7 0 1.1 -0.3 1.1 -0.8 s -0.4 -0.7 -1.1 -0.7 Z M 46.8 54 h 3.9 c 1.3 0 2.1 0.3 2.7 0.9 c 0.5 0.5 0.7 1.1 0.7 1.9 c 0 1.3 -0.7 2.1 -1.7 2.6 l 2 2.9 h -2.6 l -1.7 -2.5 h -1 v 2.5 h -2.3 V 54 Z m 3.8 4 c 0.8 0 1.2 -0.4 1.2 -1 c 0 -0.7 -0.5 -1 -1.2 -1 h -1.5 v 2 h 1.5 Z" /><path d="M 56.8 54 H 59 l 3.5 8.4 H 60 l -0.6 -1.5 h -3.2 l -0.6 1.5 h -2.4 l 3.6 -8.4 Z m 2 5 l -0.9 -2.3 L 57 59 h 1.8 Z M 62.8 54 h 2.3 v 8.3 h -2.3 V 54 Z M 65.7 54 h 2.1 l 3.4 4.4 V 54 h 2.3 v 8.3 h -2 L 68 57.8 v 4.6 h -2.3 V 54 Z M 73.7 61.1 l 1.3 -1.5 c 0.8 0.7 1.7 1 2.7 1 c 0.6 0 1 -0.2 1 -0.6 c 0 -0.4 -0.3 -0.5 -1.4 -0.8 c -1.8 -0.4 -3.1 -0.9 -3.1 -2.6 c 0 -1.5 1.2 -2.7 3.2 -2.7 c 1.4 0 2.5 0.4 3.4 1.1 l -1.2 1.6 c -0.8 -0.5 -1.6 -0.8 -2.3 -0.8 c -0.6 0 -0.8 0.2 -0.8 0.5 c 0 0.4 0.3 0.5 1.4 0.8 c 1.9 0.4 3.1 1 3.1 2.6 c 0 1.7 -1.3 2.7 -3.4 2.7 c -1.5 0.1 -2.9 -0.4 -3.9 -1.3 Z" /></g></symbol><symbol id="jetbrains-simple" viewBox="-9.45 135.6 51 51"><path fill="#000" d="M -9.45 135.6 h 51 v 51 h -51 Z" /><path fill="#fff" d="M -5.05 177 h 19.1 v 3.2 h -19.1 Z" /><g fill="#fff"><path d="M -5.25 149 l 1.5 -1.4 c 0.4 0.5 0.8 0.8 1.3 0.8 c 0.6 0 0.9 -0.4 0.9 -1.2 v -5.3 h 2.3 v 5.3 c 0 1 -0.3 1.8 -0.8 2.3 s -1.3 0.8 -2.3 0.8 c -1.5 0.1 -2.3 -0.5 -2.9 -1.3 Z M 1.25 142 h 6.7 v 1.9 h -4.4 v 1.3 h 4 v 1.8 h -4 v 1.3 h 4.5 v 2 h -6.7 l -0.1 -8.3 Z M 10.95 144 h -2.5 v -2 h 7.3 v 2 h -2.5 v 6.3 h -2.3 V 144 Z M -5.05 152.2 h 4.3 c 1 0 1.8 0.3 2.3 0.7 c 0.3 0.3 0.5 0.8 0.5 1.4 c 0 1 -0.5 1.5 -1.3 1.9 c 1 0.3 1.6 0.9 1.6 2 c 0 1.4 -1.2 2.3 -3.1 2.3 h -4.3 v -8.3 Z m 4.8 2.6 c 0 -0.5 -0.4 -0.7 -1 -0.7 h -1.5 v 1.5 h 1.4 c 0.7 -0.1 1.1 -0.3 1.1 -0.8 Z m -0.8 2.4 h -1.8 v 1.5 h 1.8 c 0.7 0 1.1 -0.3 1.1 -0.8 s -0.4 -0.7 -1.1 -0.7 Z M 2.75 152.2 h 3.9 c 1.3 0 2.1 0.3 2.7 0.9 c 0.5 0.5 0.7 1.1 0.7 1.9 c 0 1.3 -0.7 2.1 -1.7 2.6 l 2 2.9 h -2.6 l -1.7 -2.5 h -1 v 2.5 h -2.3 v -8.3 Z m 3.8 4 c 0.8 0 1.2 -0.4 1.2 -1 c 0 -0.7 -0.5 -1 -1.2 -1 h -1.5 v 2 h 1.5 Z" /><path d="M 12.75 152.2 h 2.2 l 3.5 8.4 h -2.5 l -0.6 -1.5 h -3.2 l -0.6 1.5 h -2.4 l 3.6 -8.4 Z m 2 5 l -0.9 -2.3 l -0.9 2.3 h 1.8 Z M 18.75 152.2 h 2.3 v 8.3 h -2.3 v -8.3 Z M 21.65 152.2 h 2.1 l 3.4 4.4 v -4.4 h 2.3 v 8.3 h -2 l -3.5 -4.5 v 4.6 h -2.3 v -8.4 Z M 29.65 159.3 l 1.3 -1.5 c 0.8 0.7 1.7 1 2.7 1 c 0.6 0 1 -0.2 1 -0.6 c 0 -0.4 -0.3 -0.5 -1.4 -0.8 c -1.8 -0.4 -3.1 -0.9 -3.1 -2.6 c 0 -1.5 1.2 -2.7 3.2 -2.7 c 1.4 0 2.5 0.4 3.4 1.1 l -1.2 1.6 c -0.8 -0.5 -1.6 -0.8 -2.3 -0.8 c -0.6 0 -0.8 0.2 -0.8 0.5 c 0 0.4 0.3 0.5 1.4 0.8 c 1.9 0.4 3.1 1 3.1 2.6 c 0 1.7 -1.3 2.7 -3.4 2.7 c -1.5 0.1 -2.9 -0.4 -3.9 -1.3 Z" /></g></symbol><symbol id="account" viewBox="0 0 3.606 4.26"> <path fill="currentColor" d="M 1.786 2.457 c -0.53 0 -0.972 -0.442 -0.972 -0.972 V 0.972 C 0.813 0.442 1.255 0 1.786 0 s 0.972 0.442 0.972 0.972 v 0.513 C 2.758 2.033 2.316 2.457 1.786 2.457 Z M 1.786 0.424 c -0.318 0 -0.566 0.248 -0.566 0.566 v 0.513 c 0 0.318 0.248 0.565 0.566 0.565 c 0.318 0 0.565 -0.248 0.565 -0.565 V 0.99 C 2.351 0.672 2.104 0.424 1.786 0.424 Z M 3.588 3.854 c 0 -0.354 -0.194 -0.671 -0.477 -0.777 c -0.849 -0.354 -1.786 -0.354 -2.634 0 C 0.195 3.2 0 3.5 0 3.854 V 4.26 h 0.407 V 3.854 c 0 -0.194 0.088 -0.354 0.23 -0.406 c 0.742 -0.301 1.573 -0.301 2.333 0 C 3.111 3.5 3.2 3.677 3.2 3.854 V 4.26 h 0.407 V 3.854 H 3.588 Z" /> </symbol><symbol id="search" viewBox="0 0 19.998 20"> <path fill="currentColor" d="M 19.998 18.426 l -4.386 -4.374 c 1.156 -1.477 1.848 -3.332 1.848 -5.346 c 0 -4.8 -3.917 -8.706 -8.73 -8.706 C 3.917 0 0 3.906 0 8.706 c 0 4.8 3.917 8.706 8.729 8.706 c 1.991 0 3.827 -0.669 5.297 -1.792 L 18.42 20 L 19.998 18.426 Z M 8.729 15.186 c -3.583 0 -6.498 -2.907 -6.498 -6.48 c 0 -3.573 2.915 -6.479 6.498 -6.479 c 3.583 0 6.498 2.906 6.498 6.479 C 15.228 12.279 12.313 15.186 8.729 15.186 Z" /> </symbol><symbol id="close" viewBox="0 0 18.414 18.415"> <g> <path d="M 1.414 18.415 L 0 17 L 17 0 l 1.414 1.415 L 1.414 18.415 Z" /> <path d="M 17 18.415 L 18.414 17 l -17 -17 L 0 1.415 L 17 18.415 Z" /> </g> </symbol><symbol id="hamburger" viewBox="0 0 20 16"> <path d="M 0 16 L 0 14 L 20 14 L 20 16 L 0 16 Z M 0 7 L 20 7 L 20 9 L 0 9 L 0 7 Z M 0 0 L 20 0 L 20 2 L 0 2 L 0 0 Z" /> </symbol><symbol id="facebook" viewBox="0 0 266.895 266.895"> <path d="M 252.164 0 H 14.73 C 6.594 0 0 6.594 0 14.73 v 237.435 c 0 8.135 6.594 14.729 14.729 14.729 h 127.827 V 163.54 h -34.782 v -40.28 h 34.782 V 93.554 c 0 -34.472 21.055 -53.243 51.808 -53.243 c 14.729 0 27.391 1.097 31.079 1.586 v 36.026 l -21.327 0.01 c -16.726 0 -19.964 7.947 -19.964 19.609 v 25.717 h 39.888 l -5.193 40.28 h -34.693 v 103.354 h 68.013 c 8.135 0 14.729 -6.596 14.729 -14.729 V 14.73 C 266.895 6.594 260.299 0 252.164 0 Z" /> <path fill="currentColor" d="M 184.151 266.894 V 163.539 h 34.693 l 5.193 -40.279 H 184.15 V 97.542 c 0 -11.662 3.238 -19.61 19.962 -19.61 l 21.33 -0.009 V 41.897 c -3.689 -0.489 -16.351 -1.587 -31.081 -1.587 c -30.753 0 -51.806 18.771 -51.806 53.244 v 29.705 h -34.781 v 40.279 h 34.781 v 103.354 L 184.151 266.894 L 184.151 266.894 Z" /> </symbol><symbol id="google-plus" viewBox="0 0 318 202"> <g> <path d="M 101 81 v 40 c 0 0 38.804 -0.052 54.604 -0.052 C 147.048 146.879 133.744 161 101 161 c -33.137 0 -59 -26.863 -59 -60 c 0 -33.137 25.863 -60 59 -60 c 17.52 0 28.835 6.158 39.214 14.741 c 8.308 -8.308 7.614 -9.492 28.751 -29.453 C 151.023 9.956 127.174 0 101 0 C 45.219 0 0 45.219 0 101 c 0 55.78 45.219 101 101 101 c 83.377 0 103.756 -72.6 97 -121 H 101 Z M 283 83 V 48 h -25 v 35 h -36 v 25 h 36 v 36 h 25 v -36 h 35 V 83 H 283 Z" /> </g> </symbol><symbol id="linkedin-outline" viewBox="0 0 256 256"> <g fill="currentColor"> <path d="M 101.707 97.841 h 35.759 v 16.396 h 0.507 c 4.975 -9.438 17.15 -19.377 35.301 -19.377 c 37.746 0 44.728 24.834 44.728 57.142 V 217.8 h -37.272 v -58.321 c 0 -13.924 -0.274 -31.82 -19.388 -31.82 c -19.416 0 -22.375 15.152 -22.375 30.791 v 59.353 h -37.258 L 101.707 97.841 L 101.707 97.841 Z" /> <rect x="40.957" y="97.841" width="37.339" height="119.959" /> <path d="M 59.641 38.207 c 11.938 0 21.62 9.694 21.62 21.613 c 0 11.932 -9.682 21.624 -21.62 21.624 C 47.658 81.443 38 71.751 38 59.82 C 38 47.901 47.658 38.207 59.641 38.207" /> </g> <path d="M 236 0 H 20 C 8.954 0 0 8.954 0 20 v 216 c 0 11.045 8.954 20 20 20 h 216 c 11.046 0 20 -8.955 20 -20 V 20 C 256 8.954 247.046 0 236 0 Z M 78.295 217.796 H 40.957 V 97.837 h 37.339 V 217.796 Z M 59.641 81.44 C 47.658 81.439 38 71.747 38 59.816 c 0 -11.919 9.658 -21.613 21.641 -21.613 c 11.938 0 21.62 9.694 21.62 21.613 C 81.261 71.748 71.579 81.44 59.641 81.44 Z M 218 217.796 h -37.271 v -58.321 c 0 -13.924 -0.275 -31.82 -19.389 -31.82 c -19.416 0 -22.375 15.152 -22.375 30.791 v 59.353 h -37.257 V 97.837 h 35.757 v 16.396 h 0.508 c 4.975 -9.438 17.15 -19.377 35.301 -19.377 c 37.746 0 44.727 24.834 44.727 57.142 V 217.796 Z" /> </symbol><symbol id="twitter" viewBox="0 0 273.4 222.2"> <path d="M 273.4 26.3 c -10.1 4.5 -20.9 7.5 -32.2 8.8 c 11.6 -6.9 20.5 -17.9 24.7 -31 C 255 10.5 243 15.2 230.2 17.7 C 220 6.8 205.4 0 189.3 0 c -31 0 -56.1 25.1 -56.1 56.1 c 0 4.4 0.5 8.7 1.5 12.8 C 88 66.5 46.7 44.2 19 10.3 c -4.8 8.3 -7.6 17.9 -7.6 28.2 c 0 19.5 9.9 36.6 25 46.7 c -9.2 -0.3 -17.8 -2.8 -25.4 -7 c 0 0.2 0 0.5 0 0.7 c 0 27.2 19.3 49.8 45 55 c -4.7 1.3 -9.7 2 -14.8 2 c -3.6 0 -7.1 -0.4 -10.6 -1 c 7.1 22.3 27.9 38.5 52.4 39 c -19.2 15 -43.4 24 -69.7 24 c -4.5 0 -9 -0.3 -13.4 -0.8 c 24.8 15.9 54.3 25.2 86 25.2 c 103.2 0 159.6 -85.5 159.6 -159.6 c 0 -2.4 -0.1 -4.9 -0.2 -7.3 C 256.4 47.4 265.9 37.5 273.4 26.3 Z" /> </symbol><symbol id="youtube-icon" viewBox="0 0 1021.45 718.423"> <polygon fill="currentColor" points="405.788,491.056 405.742,205.46 681.225,348.704" /> <polygon fill="#e0e0e0" points="647.267,366.329 405.225,204.704 681.225,348.704" /> <path d="M 1008.8 155.984 c 0 0 -9.932 -70.044 -40.409 -100.89 c -38.651 -40.483 -81.977 -40.685 -101.845 -43.054 C 724.309 1.758 510.945 1.758 510.945 1.758 h -0.442 c 0 0 -213.358 0 -355.601 10.282 c -19.869 2.369 -63.178 2.57 -101.844 43.054 c -30.476 30.846 -40.394 100.89 -40.394 100.89 S 2.5 238.24 2.5 320.494 v 77.114 c 0 82.253 10.165 164.508 10.165 164.508 s 9.917 70.045 40.394 100.891 c 38.666 40.484 89.456 39.203 112.078 43.447 c 81.317 7.798 345.589 10.211 345.589 10.211 s 213.584 -0.322 355.821 -10.604 c 19.868 -2.37 63.193 -2.57 101.845 -43.055 c 30.478 -30.846 40.409 -100.891 40.409 -100.891 s 10.15 -82.255 10.15 -164.508 v -77.114 C 1018.95 238.24 1008.8 155.984 1008.8 155.984 M 405.788 491.056 l -0.046 -285.595 l 274.649 143.295 L 405.788 491.056 Z" /> </symbol><symbol id="weibo" viewBox="0 0 134.732 109.14"> <path fill="#ffffff" d="M 95.265 70.718 c -1.461 -14.604 -20.897 -24.662 -43.418 -22.462 C 29.332 50.458 12.258 64.08 13.721 78.685 c 1.462 14.609 20.9 24.668 43.417 22.472 C 79.657 98.958 96.725 85.333 95.265 70.718 Z" /> <path fill="#cd201f" d="M 102.176 52.663 c -1.916 -0.568 -3.23 -0.952 -2.226 -3.441 c 2.172 -5.399 2.396 -10.058 0.041 -13.381 c -4.416 -6.234 -16.497 -5.897 -30.344 -0.167 c 0 -0.008 -4.348 1.88 -3.237 -1.528 c 2.131 -6.768 1.81 -12.437 -1.505 -15.708 c -7.514 -7.429 -27.493 0.28 -44.625 17.206 C 7.451 48.324 0 61.764 0 73.384 c 0 22.227 28.844 35.741 57.062 35.741 c 36.992 0 61.6 -21.237 61.6 -38.103 C 118.662 60.834 109.977 55.053 102.176 52.663 Z M 57.139 101.157 c -22.517 2.196 -41.955 -7.861 -43.417 -22.472 c -1.463 -14.604 15.611 -28.227 38.125 -30.428 c 22.521 -2.2 41.957 7.858 43.418 22.462 C 96.725 85.333 79.657 98.958 57.139 101.157 Z" /> <path fill="#232323" d="M 59.122 59.078 c -10.721 -2.733 -22.84 2.5 -27.497 11.759 C 26.882 80.272 31.468 90.75 42.3 94.178 c 11.22 3.544 24.446 -1.89 29.043 -12.076 C 75.879 72.14 70.217 61.886 59.122 59.078 Z M 50.935 83.185 c -2.18 3.403 -6.847 4.896 -10.362 3.324 c -3.463 -1.543 -4.486 -5.502 -2.307 -8.821 c 2.153 -3.31 6.663 -4.782 10.151 -3.349 C 51.947 75.812 53.075 79.742 50.935 83.185 Z M 58.113 74.154 c -0.788 1.322 -2.53 1.956 -3.895 1.405 c -1.342 -0.54 -1.763 -2.013 -1 -3.313 c 0.786 -1.29 2.459 -1.921 3.799 -1.399 C 58.377 71.333 58.866 72.826 58.113 74.154 Z" /> <path fill="#dd880c" d="M 125.284 12.095 c -8.735 -10.08 -21.619 -13.923 -33.511 -11.291 H 91.77 c -2.752 0.613 -4.506 3.43 -3.918 6.289 c 0.588 2.862 3.293 4.689 6.046 4.08 c 8.46 -1.87 17.614 0.865 23.825 8.025 c 6.201 7.159 7.887 16.926 5.231 25.485 l 0.001 0.002 c -0.865 2.79 0.599 5.773 3.282 6.673 c 2.67 0.902 5.544 -0.624 6.409 -3.403 c 0 -0.005 0 -0.016 0.002 -0.021 C 136.379 35.892 134.021 22.164 125.284 12.095 Z M 95.548 19.202 c -2.367 0.526 -3.877 2.953 -3.37 5.419 c 0.509 2.456 2.835 4.036 5.198 3.5 v 0.005 c 2.834 -0.623 5.905 0.286 7.981 2.681 c 2.083 2.401 2.641 5.671 1.748 8.541 h 0.005 c -0.742 2.395 0.517 4.97 2.82 5.747 c 2.304 0.768 4.775 -0.541 5.518 -2.941 c 1.821 -5.867 0.684 -12.552 -3.577 -17.461 C 107.62 19.785 101.342 17.92 95.548 19.202 Z" /> </symbol><symbol id="weibo-gray-light" viewBox="0 0 134.732 109.14"> <path fill="#f0f0f0" d="M 102.176 52.663 c -1.916 -0.568 -3.23 -0.952 -2.226 -3.441 c 2.172 -5.399 2.396 -10.058 0.041 -13.381 c -4.416 -6.234 -16.497 -5.897 -30.344 -0.167 c 0 -0.008 -4.348 1.88 -3.237 -1.528 c 2.131 -6.768 1.81 -12.437 -1.505 -15.708 c -7.514 -7.429 -27.493 0.28 -44.625 17.206 C 7.451 48.324 0 61.764 0 73.384 c 0 22.227 28.844 35.741 57.062 35.741 c 36.992 0 61.6 -21.237 61.6 -38.103 C 118.662 60.834 109.977 55.053 102.176 52.663 Z M 57.139 101.157 c -22.517 2.196 -41.955 -7.861 -43.417 -22.472 c -1.463 -14.604 15.611 -28.227 38.125 -30.428 c 22.521 -2.2 41.957 7.858 43.418 22.462 C 96.725 85.333 79.657 98.958 57.139 101.157 Z" /> <path fill="#f0f0f0" d="M 59.122 59.078 c -10.721 -2.733 -22.84 2.5 -27.497 11.759 C 26.882 80.272 31.468 90.75 42.3 94.178 c 11.22 3.544 24.446 -1.89 29.043 -12.076 C 75.879 72.14 70.217 61.886 59.122 59.078 Z M 50.935 83.185 c -2.18 3.403 -6.847 4.896 -10.362 3.324 c -3.463 -1.543 -4.486 -5.502 -2.307 -8.821 c 2.153 -3.31 6.663 -4.782 10.151 -3.349 C 51.947 75.812 53.075 79.742 50.935 83.185 Z M 58.113 74.154 c -0.788 1.322 -2.53 1.956 -3.895 1.405 c -1.342 -0.54 -1.763 -2.013 -1 -3.313 c 0.786 -1.29 2.459 -1.921 3.799 -1.399 C 58.377 71.333 58.866 72.826 58.113 74.154 Z" /> <path fill="#f0f0f0" d="M 125.284 12.095 c -8.735 -10.08 -21.619 -13.923 -33.511 -11.291 H 91.77 c -2.752 0.613 -4.506 3.43 -3.918 6.289 c 0.588 2.862 3.293 4.689 6.046 4.08 c 8.46 -1.87 17.614 0.865 23.825 8.025 c 6.201 7.159 7.887 16.926 5.231 25.485 l 0.001 0.002 c -0.865 2.79 0.599 5.773 3.282 6.673 c 2.67 0.902 5.544 -0.624 6.409 -3.403 c 0 -0.005 0 -0.016 0.002 -0.021 C 136.379 35.892 134.021 22.164 125.284 12.095 Z M 95.548 19.202 c -2.367 0.526 -3.877 2.953 -3.37 5.419 c 0.509 2.456 2.835 4.036 5.198 3.5 v 0.005 c 2.834 -0.623 5.905 0.286 7.981 2.681 c 2.083 2.401 2.641 5.671 1.748 8.541 h 0.005 c -0.742 2.395 0.517 4.97 2.82 5.747 c 2.304 0.768 4.775 -0.541 5.518 -2.941 c 1.821 -5.867 0.684 -12.552 -3.577 -17.461 C 107.62 19.785 101.342 17.92 95.548 19.202 Z" /> </symbol><symbol id="rss" viewBox="0 0 16 16"> <path d="M 2.1 11.699 c -1.2 0 -2.1 1 -2.1 2.103 c 0 1.199 1 2.102 2.1 2.102 c 1.2 0 2.102 -1 2.102 -2.102 C 4.3 12.699 3.3 11.699 2.1 11.699 Z" /> <path d="M 0 5.4 v 3.101 c 2 0 3.898 0.801 5.3 2.198 c 1.4 1.399 2.2 3.302 2.2 5.302 h 3.1 C 10.6 10.1 5.8 5.4 0 5.4 Z" /> <path d="M 0 0 v 3.1 c 7.1 0 12.898 5.802 12.898 12.9 H 16 C 16 7.1 8.8 0 0 0 Z" /> </symbol><symbol id="footer-beam" viewBox="0 0 1220.19 1005.38"> <linearGradient id="footer-beam_SVGID_1_" gradientUnits="userSpaceOnUse" gradientTransform="matrix(-500.857 -979.742 979.742 -500.857 695649 314286)" x1="540.808" y1="-432.391" x2="541.808" y2="-432.391"> <stop style="stop-color:#F15A6B" offset="0" /> <stop style="stop-color:#F2675F" offset="0.3134" /> <stop style="stop-color:#F47649" offset="0.7692" /> <stop style="stop-color:#F47B3E" offset="1" /> </linearGradient> <path fill="url(#footer-beam_SVGID_1_)" d="M 1123.49 978.379 c 5.698 10.441 14.812 19.086 26.808 23.633 c 5.978 2.268 12.114 3.352 18.149 3.367 h 0.287 c 20.784 -0.057 40.342 -12.75 48.148 -33.342 c 2.228 -5.871 3.283 -11.883 3.306 -17.797 v -0.373 c -0.029 -8.256 -2.074 -16.32 -5.774 -23.561 l 0.109 -0.057 L 754.627 50.285 c -9.709 -21.172 -27.789 -38.437 -51.561 -46.124 c -8.718 -2.819 -17.572 -4.159 -26.292 -4.159 c -36.319 0 -70.288 23.232 -82.03 59.533 c -7.036 21.753 -4.784 44.343 4.43 63.56 l -0.049 0.023 l 0.227 0.37 c 2.509 5.165 5.505 10.084 8.989 14.666 l 514.961 840.327 L 1123.49 978.379 Z" /> <linearGradient id="footer-beam_SVGID_2_" gradientUnits="userSpaceOnUse" gradientTransform="matrix(558.851 -806.244 806.244 558.851 46744.5 678281)" x1="540.508" y1="-432.509" x2="541.508" y2="-432.509"> <stop style="stop-color:#FDEF3B" offset="0" /> <stop style="stop-color:#F47B3E" offset="1" /> </linearGradient> <path fill="url(#footer-beam_SVGID_2_)" d="M 741.09 143.126 c 16.967 -19.115 25.419 -45.491 20.536 -72.441 l -0.001 -0.001 C 754.124 29.293 717.72 0.049 677.02 0.002 h -0.189 c -5.018 0.005 -10.088 0.453 -15.189 1.378 c -18.604 3.372 -34.683 12.644 -46.831 25.457 L 36.966 613.188 c -0.738 0.729 -1.51 1.42 -2.231 2.17 l -0.511 0.496 l 0.039 0.037 C 18.071 632.883 6.466 654.606 1.991 679.43 C 0.664 686.79 0.016 694.112 0 701.336 v 0.541 c 0.127 58.846 42.23 111.023 102.203 121.834 c 42.261 7.617 83.373 -7.119 111.204 -35.764 l 0.005 0.004 l 0.056 -0.074 c 6.208 -6.398 11.671 -13.551 16.419 -21.242 L 741.25 143.279 L 741.09 143.126 Z" /> </symbol></defs></svg>